<?xml version="1.0" encoding="utf-8"?><!-- Uploaded to: SVG Repo, www.svgrepo.com, Generator: SVG Repo Mixer Tools -->
<svg fill="#000000" width="800px" height="800px" viewBox="0 0 24 24" id="turn-around-up-right-direction-3" data-name="Flat Line" xmlns="http://www.w3.org/2000/svg" class="icon flat-line"><path id="secondary" d="M14.31,3.38,12.17,6.5A1,1,0,0,0,12.86,8h4.28a1,1,0,0,0,.69-1.5L15.69,3.37A.82.82,0,0,0,14.31,3.38Z" style="fill: rgb(44, 169, 188); stroke-width: 2;"></path><path id="primary" d="M15,8v8.5A4.49,4.49,0,0,1,10.5,21h0A4.49,4.49,0,0,1,6,16.5V4" style="fill: none; stroke: rgb(0, 0, 0); stroke-linecap: round; stroke-linejoin: round; stroke-width: 2;"></path><path id="primary-2" data-name="primary" d="M14.31,3.38,12.17,6.5A1,1,0,0,0,12.86,8h4.28a1,1,0,0,0,.69-1.5L15.69,3.37A.82.82,0,0,0,14.31,3.38Z" style="fill: none; stroke: rgb(0, 0, 0); stroke-linecap: round; stroke-linejoin: round; stroke-width: 2;"></path></svg>