<svg width="1020" height="1524" viewBox="0 0 1020 1524" fill="none" xmlns="http://www.w3.org/2000/svg">
<path fill-rule="evenodd" clip-rule="evenodd" d="M0 117.5V103.98H9C35.1118 127.714 52.1451 112.326 59.8522 105.363C61.8853 103.526 63.2694 102.276 64 102.484C66.9406 103.325 115.41 102.047 131.719 101.617C134.821 101.535 136.76 101.484 137 101.484C138.2 101.484 139.167 97.151 139.5 94.9844C146.3 83.7844 164.667 88.3146 173 91.9797L192 83.4844C206.8 74.6844 220.833 85.4813 226 91.9797C246.532 89.0983 264.21 89.333 276.976 89.5024C281.93 89.5682 286.145 89.6242 289.5 89.4844C299.381 89.0727 318.753 80.5255 325.566 77.5192C327.028 76.8743 327.912 76.4844 328 76.4844C328.111 76.4844 328.099 76.7062 328.078 77.0788C328.006 78.3841 327.832 81.5395 332.5 83.4844C337.341 85.5017 338.927 83.6123 342.249 79.6551C343.044 78.7082 343.938 77.6429 345 76.4844C350.5 70.4844 353.5 72.9844 356 75.9844C357.617 77.9247 357.561 77.146 357.454 75.6773C357.396 74.8752 357.323 73.8674 357.5 72.9844C358 70.4844 359.5 64.4844 362 59.9844C363.304 57.637 363.384 58.2828 363.587 59.9347C363.774 61.4494 364.065 63.8101 365.5 65.4844C367.032 67.2713 367.521 65.5392 368.364 62.5506C369.173 59.6855 370.308 55.6657 373 52.4844C373.421 51.9867 373.81 51.5154 374.176 51.0723L374.178 51.0699C378.585 45.7276 379.612 44.4829 393 50.4844C405.445 56.0632 411.997 55.0122 414.552 54.6023C414.974 54.5346 415.287 54.4844 415.5 54.4844C416.423 54.4844 417.536 55.0529 419.306 55.9566C420.41 56.5208 421.77 57.2157 423.5 57.9844C426.756 59.4314 428.703 55.3823 430.288 52.0856C430.894 50.8257 431.447 49.6757 432 48.9844C433.6 46.9844 439 47.151 441.5 47.4844C452.673 41.1427 462.388 43.9205 471.634 46.5645C477.697 48.2982 483.56 49.9745 489.5 48.9844C500.462 47.1574 504.748 52.5402 507.627 56.1562C508.688 57.4883 509.558 58.5806 510.5 58.9844C512.018 59.6347 513.441 59.8151 515.015 60.0146C517.071 60.2752 519.385 60.5683 522.5 61.9844C525.873 63.5174 526.989 67.1185 527.925 70.1361C528.515 72.0395 529.033 73.7108 530 74.4844C531.052 75.326 532.104 74.3082 533.268 73.1822C534.87 71.6326 536.683 69.8781 539 72.4844C541.262 75.0293 548.642 78.214 554.989 80.953C559.865 83.0571 564.131 84.8982 565 85.9844L565.127 86.1433C567.41 89.0043 577.656 101.848 585.5 94.9844C593.5 87.9844 614 87.4844 618 88.4844C622 89.4844 634 86.4844 642 82.4844C647.097 79.9357 650.571 82.8678 654.102 85.8484C656.112 87.5457 658.142 89.2587 660.5 89.9844C665.7 91.5844 678.333 89.651 684 88.4844C686.271 78.6423 693.414 84.8491 698.053 88.8793C699.541 90.1724 700.771 91.2415 701.5 91.4844C703.9 92.2844 705.5 91.8177 706 91.4844C710.323 80.4805 717.735 92.0257 722.166 98.9279C723.372 100.807 724.358 102.342 725 102.984C726.987 104.972 728.536 103.01 729.645 101.604C730.211 100.888 730.662 100.316 731 100.484C731.305 100.637 731.61 101.534 732.043 102.806C733.029 105.704 734.677 110.552 738.5 112.984C742.302 115.404 744.909 109.461 746.983 104.735C747.909 102.624 748.728 100.756 749.5 99.9844C750.911 98.5737 751.048 98.9142 751.528 100.108C751.899 101.029 752.475 102.459 754 103.984C756.8 106.784 782.167 104.151 794.5 102.484C813.742 93.9735 817.1 93.1306 822.208 91.8487C824.001 91.3985 826.011 90.8941 829 89.9844C836.167 87.8031 839.839 91.2538 842.677 93.9216C844.393 95.5344 845.805 96.8611 847.5 96.4844C850.207 95.8828 859.067 96.3669 867.874 96.8482C873.706 97.1669 879.516 97.4844 883.5 97.4844C891.5 97.4844 898.167 68.4844 900.5 53.9844C915.721 57.3054 920.986 49.444 925.79 42.2705C929.665 36.4839 933.24 31.1449 941.5 32.4844C944.473 32.9666 945.034 31.907 945.83 30.4038C946.223 29.6615 946.674 28.8109 947.5 27.9844C948.901 26.5834 949.517 26.7526 950.404 26.9961C951.099 27.1872 951.961 27.424 953.5 26.9844C955.552 26.3981 957.432 22.7189 959.039 19.5731C960.174 17.3527 961.172 15.3981 962 14.9844C962.795 14.587 963.668 15.8477 964.778 17.4487C966.461 19.8766 968.686 23.087 972 22.4844C976.022 21.753 978.44 17.8124 980.427 14.5743C981.157 13.3849 981.828 12.2903 982.5 11.4844C983.976 9.71338 985.8 10.2076 987.253 10.6011C988.261 10.8742 989.09 11.0989 989.5 10.4844C989.75 10.1093 990 9.60909 990.305 8.99942C991.219 7.17084 992.625 4.35759 996 0.982799C998.586 -1.6032 1001.83 1.42443 1004.79 4.18308C1006.98 6.22487 1009.01 8.11932 1010.5 7.48132C1013.3 6.28132 1018 6.98132 1020 7.48132V17V41.4813V1419.48V1436V1449.48C1017.5 1448.82 1010 1451.18 999.99 1465.98C993.841 1465.98 988.215 1464.89 983.065 1463.88C973.97 1462.11 966.358 1460.62 959.971 1465.98C959.549 1465.98 958.673 1465.15 957.363 1463.89C950.903 1457.72 933.901 1441.46 908.946 1465.98C905.944 1467.82 896.64 1470.38 883.433 1465.98C878.597 1465.82 868.526 1466.28 866.925 1469.48C863.673 1475.98 842.413 1467.48 823.904 1456.98C818.901 1451.32 806.495 1441.08 796.891 1445.48C792.889 1449.82 783.884 1458.18 779.882 1456.98C778.518 1456.58 775.33 1455.27 771.274 1453.62C760.455 1449.2 743.455 1442.26 738.362 1442.98C735.959 1443.33 732.791 1442.55 729.261 1441.69C722.503 1440.04 714.419 1438.06 707.847 1442.98C707.613 1442.98 707.489 1442.82 707.308 1442.58C706.713 1441.8 705.51 1440.22 697.842 1440.98C693.714 1441.4 690.523 1440.62 687.917 1439.98C684.207 1439.08 681.684 1438.46 679.333 1441.98C675.331 1447.98 635.311 1467.48 626.807 1466.98C620.004 1466.58 615.302 1457.82 613.801 1453.48C610.799 1454.15 604.796 1455.78 604.796 1456.98C604.796 1457.42 604.499 1456.8 603.99 1455.73C602.754 1453.13 600.274 1447.92 597.793 1448.98C594.291 1450.48 586.287 1454.48 585.287 1456.98C584.487 1458.98 581.952 1459.15 580.785 1458.98C579.117 1461.32 575.382 1465.48 573.781 1463.48C573.418 1463.03 573.006 1462.53 572.58 1462.01C571.127 1460.24 569.516 1458.27 569.171 1457.42C569.125 1457.47 569.073 1457.54 569.015 1457.6C567.871 1458.94 564.458 1462.94 560.775 1473.98C558.607 1473.15 554.272 1471.18 554.272 1469.98C554.272 1469.46 553.475 1470.83 552.311 1472.84C550.149 1476.57 546.718 1482.48 544.767 1482.48C542.366 1482.48 536.43 1477.48 533.762 1474.98L524.257 1484.48C523.457 1485.28 518.921 1484.82 516.753 1484.48C513.418 1486.32 502.746 1488.48 486.739 1482.48L470.23 1498.48L460.726 1499.48C460.226 1504.82 458.625 1515.38 456.224 1514.98C453.222 1514.48 445.718 1510.48 445.718 1508.98C445.718 1508.64 445.615 1508.69 445.25 1508.85C444.009 1509.41 439.74 1511.33 426.209 1503.98C424.875 1503.32 421.607 1503.08 419.205 1507.48L415.704 1508.98C413.036 1510.82 407.5 1514.78 406.699 1515.98C405.699 1517.48 402.697 1515.98 398.695 1506.48C398.529 1509.15 397.995 1514.38 397.195 1513.98C396.528 1513.65 394.527 1508.65 392.971 1504.76C392.192 1502.82 391.525 1501.15 391.192 1500.48C390.191 1498.48 386.69 1494.48 381.187 1500.48C376.785 1505.28 374.017 1507.15 373.183 1507.48L369.181 1508.98C369.181 1509.48 368.581 1510.58 366.18 1510.98C363.178 1511.48 356.175 1511.48 354.174 1508.98C352.173 1506.48 348.171 1501.48 342.668 1503.98C338.266 1505.98 336.165 1508.15 335.665 1508.98C332.33 1506.98 324.259 1504.18 318.656 1508.98C313.053 1513.78 309.652 1519.32 308.651 1521.48C306.484 1521.98 301.748 1522.68 300.147 1521.48C298.146 1519.98 292.143 1518.48 291.143 1519.48C290.342 1520.28 287.141 1522.48 285.64 1523.48C279.137 1508.82 263.729 1480.78 254.125 1485.98C252.624 1487.15 249.122 1489.28 247.121 1488.48C245.901 1488 245.276 1490.84 244.608 1493.88C243.906 1497.07 243.156 1500.48 241.618 1500.48C238.617 1500.48 225.611 1475.48 225.611 1473.48C225.611 1471.88 224.61 1477.48 224.11 1480.48C218.44 1470.48 204.9 1449.68 196.096 1446.48C195.748 1445.09 195.52 1442.36 195.267 1439.31C194.792 1433.61 194.224 1426.79 192.594 1425.48C190.093 1423.48 177.587 1417.48 170.083 1418.48C169.735 1418.48 168.961 1417.03 167.954 1415.13C166.068 1411.58 163.361 1406.48 161.079 1406.48C158.005 1406.48 156.087 1409.57 154.988 1411.34C154.835 1411.58 154.698 1411.8 154.576 1411.98C153.775 1413.18 148.906 1414.15 146.572 1414.48L141.069 1418.48L136.067 1402.98C130.397 1408.15 115.557 1414.08 101.55 1396.48C99.8823 1396.32 96.0471 1396.58 94.0461 1398.98L89.0436 1389.98C86.7092 1392.15 81.4399 1396.48 79.0387 1396.48C78.3508 1396.48 76.473 1395.75 73.8079 1394.71C64.8461 1391.22 46.9816 1384.26 35.5174 1389.98C34.5786 1390.45 33.2267 1389.24 31.4491 1387.65C25.6491 1382.46 15.3156 1373.22 0 1404.98V1390V1373.48V134.48V117.5ZM992.354 1438.76C994.768 1439.33 997.053 1439.31 998.629 1438.14L992.354 1438.76Z" fill="#EEEEEE"/>
<path d="M0 134.481V103.981H9C42 133.977 60.5 101.486 64 102.486C67.5 103.486 135.5 101.486 137 101.486C138.2 101.486 139.167 97.1526 139.5 94.9859C146.3 83.7859 164.667 88.3161 173 91.9812L192 83.4859C206.8 74.6859 220.833 85.4828 226 91.9812C254.5 87.9816 277.5 89.9859 289.5 89.4859C301.5 88.9859 327.5 76.4859 328 76.4859C328.5 76.4859 326.5 80.9859 332.5 83.4859C338.5 85.9859 339.5 82.4859 345 76.4859C350.5 70.4859 353.5 72.9859 356 75.9859C358.5 78.9859 357 75.4859 357.5 72.9859C358 70.4859 359.5 64.4859 362 59.9859C364.5 55.4859 362.5 61.9859 365.5 65.4859C368.5 68.9859 367.5 58.9859 373 52.4859C378.5 45.9859 378.5 43.9859 393 50.4859C407.5 56.9859 414 54.4859 415.5 54.4859C417 54.4859 419 55.9859 423.5 57.9859C428 59.9859 430 51.4859 432 48.9859C433.6 46.9859 439 47.1526 441.5 47.4859C460 36.9859 474.5 51.4859 489.5 48.9859C504.5 46.4859 507 57.4859 510.5 58.9859C514 60.4859 517 59.4859 522.5 61.9859C528 64.4859 527.5 72.4859 530 74.4859C532.5 76.4859 535 67.9859 539 72.4859C543 76.9859 563 83.4859 565 85.9859L565.127 86.1449C567.41 89.0058 577.656 101.849 585.5 94.9859C593.5 87.9859 614 87.4859 618 88.4859C622 89.4859 634 86.4859 642 82.4859C650 78.4859 654 87.9859 660.5 89.9859C665.7 91.5859 678.333 89.6526 684 88.4859C687 75.4859 698.5 90.4859 701.5 91.4859C703.9 92.2859 705.5 91.8192 706 91.4859C711.5 77.4859 722 99.9859 725 102.986C728 105.986 730 99.9859 731 100.486C732 100.986 733 109.486 738.5 112.986C744 116.486 747 102.486 749.5 99.9859C752 97.4859 750.5 100.486 754 103.986C756.8 106.786 782.167 104.153 794.5 102.486C820.5 90.9859 817.5 93.4859 829 89.9859C840.5 86.4859 843 97.4859 847.5 96.4859C852 95.4859 873.5 97.4859 883.5 97.4859C891.5 97.4859 898.167 68.4859 900.5 53.9859C928 59.9859 923 29.4859 941.5 32.4859C945.942 33.2062 945 30.4859 947.5 27.9859C950 25.4859 950 27.9859 953.5 26.9859C957 25.9859 960 15.9859 962 14.9859C964 13.9859 966.5 23.4859 972 22.4859C977.5 21.4859 980 14.4859 982.5 11.4859C985 8.4859 988.5 11.9859 989.5 10.4859C990.5 8.9859 991.5 5.48432 996 0.984325C1000.5 -3.51568 1007 8.98284 1010.5 7.48284C1013.3 6.28284 1018 6.98284 1020 7.48284V41.4828C1019.5 41.1495 1018.3 40.3828 1017.5 39.9828C1016.5 39.4828 1014 40.9828 1009.5 41.4828C1005 41.9828 1000 36.9809 996 34.4809C992 31.9809 991.5 41.4809 990 43.4809C988.5 45.4809 989 43.9809 983.5 44.4809C978 44.9809 968 56.9809 967 56.4809C966 55.9809 965 52.482 963 49.982C961 47.482 955 56.482 948.5 63.482C943.3 69.082 934 68.1487 930 66.982C923 90.482 904.5 84.482 902 85.982C899.5 87.482 892.5 112.482 890.5 120.982C888.5 129.482 884 125.982 877.5 126.982C871 127.982 853.5 127.982 846.5 126.982C839.5 125.982 837.5 121.982 826 118.482C814.5 114.982 796.5 132.982 791.5 133.982C786.5 134.982 752.5 132.982 750 128.982C747.5 124.982 737 142.982 735.5 142.982C734 142.982 730.5 130.482 730 129.982C729.5 129.482 726.5 132.482 724 132.982C721.5 133.482 712 116.482 711 116.482C710 116.482 706 123.982 703 122.482C700 120.982 692 106.982 687 112.982C682 118.982 671 119.482 665.5 119.482C660 119.482 659 104.982 649.5 114.982C640 124.982 612.5 110.982 595.5 122.482C581.9 131.682 568.167 120.649 563 113.982C557.5 112.982 545.7 109.882 542.5 105.482C539.3 101.082 532.167 102.982 529 104.482C528.5 101.982 523 89.482 518 91.482C514 93.082 509.667 89.8139 508 87.9799C501.2 78.7782 487.833 78.4792 482 79.4799C458 71.0791 445 75.9796 441.5 79.4799C440 77.9799 436.5 75.7799 434.5 78.9799C432 82.9799 420.5 90.4799 419 87.9799C417.5 85.4799 416 84.9799 409.5 86.9809C405.5 86.9809 385 76.9809 377.5 78.4809C371.5 79.6809 367 90.6475 365.5 95.9809C365.667 95.1477 364.9 93.1812 360.5 91.9812C355.846 90.7119 355.846 104.48 355.956 107.533C355.985 107.676 356 107.826 356 107.981C356 108.289 355.976 108.088 355.956 107.533C355.617 105.832 353.383 104.981 352 104.981C348.5 106.981 340.8 111.481 338 113.481C335.2 115.481 329.167 110.648 326.5 107.981C319.5 111.481 289 120.481 285 118.481C281 116.481 269.5 118.481 262.5 118.481C256.9 118.481 235.833 120.815 226 121.981C208 97.4812 173 121.981 171.5 121.981C170 121.981 170 115.981 153.5 118.481C137 120.981 140 127.981 140 129.481C140 130.681 136.333 129.981 134.5 129.481C93.5 137.981 69.5 128.481 65.5 131.981C62.3 134.781 51.8333 141.815 47 144.981C31 155.481 9.5 134.481 7.5 134.481H0Z" fill="white"/>
<path d="M0 1404.99V1373.49C5.66945 1361.99 20.41 1343.49 34.0167 1361.49C35.0172 1361.32 39.5194 1361.39 49.5243 1362.99C62.0304 1364.99 59.0289 1364.99 68.5336 1365.99C78.0383 1366.99 85.5419 1364.49 87.5429 1362.99C89.3771 1365.49 93.2457 1370.59 94.0461 1370.99C95.0466 1371.49 96.5473 1363.49 101.55 1368.49C106.552 1373.49 120.559 1383.49 131.564 1378.49C132.765 1378.49 135.733 1375.15 137.067 1373.49C136.9 1377.82 137.267 1386.69 140.069 1387.49C143.57 1388.49 139.068 1387.49 145.571 1385.49C152.075 1383.49 150.574 1386.49 155.576 1382.49C160.579 1378.49 161.079 1374.49 165.081 1379.99C169.083 1385.49 163.58 1389.49 170.584 1389.99C177.587 1390.49 194.095 1387.99 195.096 1396.49C196.096 1404.99 195.096 1409.99 195.096 1413.49C195.096 1416.99 211.604 1423.99 224.11 1448.49C224.443 1447.32 225.21 1444.49 225.611 1442.49C226.111 1439.99 234.115 1460.99 238.617 1464.99C243.119 1468.99 243.619 1465.99 245.62 1460.99C247.621 1455.99 248.622 1454.99 251.623 1455.49C254.625 1455.99 257.126 1456.49 259.127 1455.49C261.128 1454.49 260.128 1443.99 268.632 1460.99C277.136 1477.99 281.638 1486.99 283.639 1487.49C285.64 1487.99 286.14 1489.49 291.143 1487.49C296.145 1485.49 294.644 1485.99 302.148 1485.99C309.652 1485.99 310.652 1481.49 319.657 1474.99C328.661 1468.49 329.161 1474.99 334.664 1474.99C340.167 1474.99 340.667 1469.49 347.67 1471.49C354.674 1473.49 358.176 1477.99 362.178 1476.49C366.18 1474.99 362.678 1479.99 370.181 1476.49C377.685 1472.99 380.186 1464.99 384.188 1464.99C388.19 1464.99 393.693 1468.49 394.693 1474.99C395.494 1480.19 396.694 1480.15 397.195 1479.49L398.407 1474.64C398.488 1474.22 398.588 1473.83 398.695 1473.49L398.407 1474.64C397.86 1477.47 398.165 1481.64 402.697 1481.99C409.201 1482.49 408.2 1479.49 411.702 1477.99C414.503 1476.79 416.871 1475.49 417.705 1474.99C418.705 1473.82 420.906 1471.49 421.707 1471.49C422.707 1471.49 425.208 1468.99 433.212 1473.49C441.216 1477.99 441.216 1476.49 443.717 1476.49C446.219 1476.49 448.22 1479.49 449.72 1479.49C451.221 1479.49 453.222 1483.99 456.224 1479.49C459.225 1474.99 460.726 1474.99 460.726 1469.99C460.726 1465.99 462.06 1464.99 462.727 1464.99C462.56 1466.82 464.328 1468.99 472.732 1462.99C481.136 1456.99 484.904 1452.15 485.738 1450.49C493.575 1452.32 510.15 1455.59 513.752 1453.99C517.354 1452.39 518.254 1450.32 518.254 1449.49C519.421 1450.82 522.056 1453.09 523.256 1451.49C524.757 1449.49 526.758 1446.49 530.76 1445.49C534.762 1444.49 532.261 1451.49 538.764 1450.49C545.267 1449.49 545.768 1447.49 549.769 1443.49C553.771 1439.49 552.771 1450.99 558.274 1443.49C563.776 1435.99 566.778 1424.49 569.279 1426.99C571.78 1429.49 573.281 1433.49 577.283 1431.49C580.485 1429.89 583.286 1427.82 584.286 1426.99C587.788 1423.82 595.392 1417.99 597.793 1419.99C600.194 1421.99 603.462 1425.49 604.796 1426.99C607.798 1424.15 614.301 1420.69 616.302 1429.49C620.471 1437.49 638.913 1445.69 679.333 1414.49C680.834 1414.49 691.839 1401.99 705.846 1414.49C709.681 1410.82 720.453 1405.19 732.859 1411.99C739.529 1412.65 753.569 1414.59 756.371 1416.99C759.872 1419.99 764.375 1424.99 771.378 1424.99C778.382 1424.99 785.885 1427.99 790.888 1422.49C795.89 1416.99 793.889 1414.49 799.392 1414.49C804.895 1414.49 815.9 1417.99 821.403 1422.49C826.905 1426.99 819.402 1425.99 831.408 1429.49C843.413 1432.99 852.918 1442.49 860.422 1439.99C867.925 1437.49 864.924 1435.99 873.428 1436.49C881.932 1436.99 898.941 1439.99 905.944 1436.49C912.948 1432.99 934.458 1410.99 957.469 1434.49C964.306 1432.65 978.98 1430.09 982.982 1434.49C987.484 1437.49 997.189 1442.09 999.99 1436.49C1003.49 1429.49 1014.5 1416.49 1020 1419.49V1449.49C1017.5 1448.82 1010 1451.19 999.99 1465.99C982.982 1465.99 969.975 1457.59 959.971 1465.99C957.469 1465.99 938.96 1436.49 908.946 1465.99C905.944 1467.82 896.64 1470.39 883.433 1465.99C878.597 1465.82 868.526 1466.29 866.925 1469.49C863.673 1475.99 842.413 1467.49 823.904 1456.99C818.901 1451.32 806.495 1441.09 796.891 1445.49C792.889 1449.82 783.884 1458.19 779.882 1456.99C774.88 1455.49 745.365 1441.99 738.362 1442.99C731.359 1443.99 717.852 1435.49 707.847 1442.99C706.846 1442.99 707.847 1439.99 697.842 1440.99C687.837 1441.99 683.335 1435.99 679.333 1441.99C675.331 1447.99 635.311 1467.49 626.807 1466.99C620.004 1466.59 615.302 1457.82 613.801 1453.49C610.799 1454.15 604.796 1455.79 604.796 1456.99C604.796 1458.49 601.295 1447.49 597.793 1448.99C594.291 1450.49 586.287 1454.49 585.287 1456.99C584.487 1458.99 581.952 1459.15 580.785 1458.99C579.117 1461.32 575.382 1465.49 573.781 1463.49C572.18 1461.49 569.618 1458.52 569.171 1457.42C568.216 1458.56 564.645 1462.38 560.775 1473.99C558.607 1473.15 554.272 1471.19 554.272 1469.99C554.272 1468.49 547.768 1482.49 544.767 1482.49C542.366 1482.49 536.43 1477.49 533.762 1474.99L524.257 1484.49C523.457 1485.29 518.921 1484.82 516.753 1484.49C513.418 1486.32 502.746 1488.49 486.739 1482.49L470.23 1498.49L460.726 1499.49C460.226 1504.82 458.625 1515.39 456.224 1514.99C453.222 1514.49 445.718 1510.49 445.718 1508.99C445.718 1507.49 443.717 1513.49 426.209 1503.99C424.875 1503.32 421.607 1503.09 419.205 1507.49L415.704 1508.99C413.036 1510.82 407.5 1514.79 406.699 1515.99C405.699 1517.49 402.697 1515.99 398.695 1506.49C398.529 1509.15 397.995 1514.39 397.195 1513.99C396.194 1513.49 392.192 1502.49 391.192 1500.49C390.191 1498.49 386.69 1494.49 381.187 1500.49C376.785 1505.29 374.017 1507.15 373.183 1507.49L369.181 1508.99C369.181 1509.49 368.581 1510.59 366.18 1510.99C363.178 1511.49 356.175 1511.49 354.174 1508.99C352.173 1506.49 348.171 1501.49 342.668 1503.99C338.266 1505.99 336.165 1508.15 335.665 1508.99C332.33 1506.99 324.259 1504.19 318.656 1508.99C313.053 1513.79 309.652 1519.32 308.651 1521.49C306.484 1521.99 301.748 1522.69 300.147 1521.49C298.146 1519.99 292.143 1518.49 291.143 1519.49C290.342 1520.29 287.141 1522.49 285.64 1523.49C279.137 1508.82 263.729 1480.79 254.125 1485.99C252.624 1487.15 249.122 1489.29 247.121 1488.49C244.62 1487.49 244.62 1500.49 241.618 1500.49C238.617 1500.49 225.611 1475.49 225.611 1473.49C225.611 1471.89 224.61 1477.49 224.11 1480.49C218.44 1470.49 204.9 1449.69 196.096 1446.49C195.096 1442.49 195.096 1427.49 192.594 1425.49C190.093 1423.49 177.587 1417.49 170.083 1418.49C169.083 1418.49 164.581 1406.49 161.079 1406.49C157.577 1406.49 155.576 1410.49 154.576 1411.99C153.775 1413.19 148.906 1414.15 146.572 1414.49L141.069 1418.49L136.067 1402.99C130.397 1408.15 115.557 1414.09 101.55 1396.49C99.8823 1396.32 96.0471 1396.59 94.0461 1398.99L89.0436 1389.99C86.7092 1392.15 81.4399 1396.49 79.0387 1396.49C76.0373 1396.49 50.3908 1382.55 35.5174 1389.99C31.5154 1391.99 20.0098 1363.49 0 1404.99Z" fill="white"/>
</svg>
