<svg width="1080" height="1350" viewBox="0 0 1080 1350" fill="none" xmlns="http://www.w3.org/2000/svg">
  <path d="M0 169H1080M0 338H1080M0 507H1080M0 676H1080M0 845H1080M0 1014H1080M0 1183H1080" stroke="#142334" stroke-opacity="0.022"/>
  <path d="M135 0V1350M270 0V1350M405 0V1350M540 0V1350M675 0V1350M810 0V1350M945 0V1350" stroke="#142334" stroke-opacity="0.018"/>
  <path d="M81 62L102 76M842 201L866 218M256 410L238 430M983 688L1005 704M128 1090L151 1108M746 1217L722 1234" stroke="#C9AD98" stroke-opacity="0.18" stroke-width="2"/>
</svg>
