<svg width="260" height="170" viewBox="0 0 260 170" fill="none" xmlns="http://www.w3.org/2000/svg">
  <path d="M34 84C37 42 93 23 154 29C214 35 250 62 244 100C237 139 179 157 112 151C54 146 17 122 20 87C23 57 61 38 119 35" stroke="#000000" stroke-width="7" stroke-linecap="round" stroke-linejoin="round"/>
  <path d="M47 92C53 60 97 45 151 49C203 52 232 73 226 101C218 132 171 144 116 139C70 135 43 117 45 93C47 72 76 58 122 55" stroke="#000000" stroke-opacity="0.52" stroke-width="4.5" stroke-linecap="round" stroke-linejoin="round"/>
</svg>
