<svg width="240" height="180" viewBox="0 0 240 180" fill="none" xmlns="http://www.w3.org/2000/svg">
  <path d="M43 94C47 56 84 31 132 31C181 31 213 59 211 94C209 134 166 153 112 150C63 147 28 127 29 93C30 64 56 44 97 38" stroke="#000000" stroke-width="7" stroke-linecap="round" stroke-linejoin="round"/>
  <path d="M51 103C53 71 86 48 129 47C173 45 201 68 198 98C194 130 158 143 113 140C73 137 47 122 47 99C47 78 68 61 101 56" stroke="#000000" stroke-opacity="0.52" stroke-width="4" stroke-linecap="round" stroke-linejoin="round"/>
</svg>
