<svg width="230" height="180" viewBox="0 0 230 180" fill="none" xmlns="http://www.w3.org/2000/svg">
  <path d="M37 91C40 49 79 25 129 27C181 29 213 59 210 100C207 145 161 159 107 153C61 148 28 123 29 91C30 63 56 42 95 35" stroke="#000000" stroke-width="10" stroke-linecap="round" stroke-linejoin="round"/>
  <path d="M52 101C54 68 85 48 126 49C167 50 193 72 190 101C187 133 153 143 111 139C77 136 53 119 52 99C51 79 72 63 106 57" stroke="#000000" stroke-opacity="0.42" stroke-width="6" stroke-linecap="round" stroke-linejoin="round"/>
</svg>
