<svg width="240" height="180" viewBox="0 0 240 180" fill="none" xmlns="http://www.w3.org/2000/svg">
  <path d="M35 96C28 61 65 36 112 30C167 23 212 45 219 82C227 126 186 154 131 158C78 162 34 139 28 105C24 80 45 55 81 42" stroke="#000000" stroke-width="7" stroke-linecap="round" stroke-linejoin="round"/>
  <path d="M47 88C58 55 97 43 140 45C181 47 209 68 207 98C205 130 168 147 121 145C77 143 47 122 45 96C43 72 67 54 103 48" stroke="#000000" stroke-opacity="0.48" stroke-width="4.5" stroke-linecap="round" stroke-linejoin="round"/>
  <path d="M71 42L63 34M186 49L197 41M206 126L218 133M52 132L41 140" stroke="#000000" stroke-opacity="0.45" stroke-width="4" stroke-linecap="round"/>
</svg>
