<svg width="240" height="180" viewBox="0 0 240 180" fill="none" xmlns="http://www.w3.org/2000/svg">
  <path d="M38 92C40 47 87 24 139 31C191 38 219 71 207 111C193 154 129 163 77 146C31 131 18 92 44 61C66 35 106 27 155 38" stroke="#000000" stroke-width="6" stroke-linecap="round" stroke-linejoin="round"/>
  <path d="M51 88C62 51 107 40 154 50C191 58 207 84 196 112C181 149 121 154 79 134C48 119 40 90 62 68C84 47 122 42 168 55" stroke="#000000" stroke-opacity="0.58" stroke-width="5" stroke-linecap="round" stroke-linejoin="round"/>
  <path d="M68 103C82 126 130 134 166 119C189 110 192 87 169 75" stroke="#000000" stroke-opacity="0.32" stroke-width="3.5" stroke-linecap="round"/>
</svg>
