<svg width="8583" height="3712" viewBox="-500 -500 8583 3712" fill="none" xmlns="http://www.w3.org/2000/svg">
<path d="M196.744 251.795C462.869 385.242 698.649 572.082 889.382 800.665C1170.49 1141.75 1155.2 1350.71 1425.2 1545.56C1687.61 1734.79 2047.79 1786.93 2340 1715.45C2738.72 1617.83 2756.76 1352.15 3267.87 931.349C3568.45 684.096 4132.1 219.908 4796.9 264.863C5132.77 287.602 5466.67 438.411 5777.05 578.504C6157.48 750.222 6212.1 838.433 6417.41 879.076C6661.27 927.428 7038.3 893.059 7580.52 460.888" stroke="#4A3AFF" stroke-width="7" stroke-miterlimit="10"/>
<path d="M189.295 300.67C429.099 417.905 645.282 578.267 827.044 773.744C844.425 792.694 861.807 812.165 879.319 832.16C1163.3 1162.53 1152.06 1362.08 1418.66 1552.1C1534.87 1635.24 1666.45 1694.46 1805.75 1726.3C1905.53 1749.01 2007.87 1758.5 2110.12 1754.52C2186.59 1751.51 2262.47 1739.89 2336.34 1719.89C2418.65 1698.74 2496.9 1664.12 2567.92 1617.44C2698.6 1531.19 2790.08 1414.75 2930.83 1268.64C3036.85 1158.69 3152.2 1058.12 3275.58 968.071C3340.93 919.718 3417.25 861.433 3505.46 801.711C3741.48 641.493 4043.5 467.422 4405.89 407.308C4528.86 386.326 4653.8 379.312 4778.34 386.399C4797.42 387.444 4816.37 389.012 4835.06 390.842C5020.11 408.746 5196.41 456.184 5376.5 519.173C5511.23 565.696 5638.65 623.72 5765.03 678.215C5817.95 701.477 5865.26 722.647 5908 742.511C6166.1 862.871 6233.14 927.428 6409.44 955.656C6543.39 977.088 6716.68 973.298 6936.63 896.979C7116.98 834.512 7330.52 721.994 7580.52 535.901" stroke="#4A3AFF" stroke-width="7" stroke-miterlimit="10"/>
<path d="M182.369 349.808C419.689 462.612 634.541 617.593 816.459 807.2C833.884 825.495 851.309 844.227 868.734 863.394C1156.24 1183.18 1149.32 1373.06 1412.26 1558.63C1528.75 1642.86 1660.75 1703.22 1800.66 1736.23C1901.03 1759.09 2004.03 1768.23 2106.86 1763.41C2183.44 1759.51 2259.27 1746.34 2332.68 1724.21C2414.58 1700.53 2492.41 1664.53 2563.47 1617.44C2699.39 1528.57 2795.83 1415.92 2935.01 1279.49C3041.53 1175.94 3158.22 1083.38 3283.29 1003.22C3348.64 960.361 3423.26 907.826 3510.56 855.814C3743.18 717.159 4026.77 571.708 4385.5 524.27C4509.44 507.194 4634.69 501.595 4759.66 507.543C4779 508.588 4798.08 509.895 4816.9 511.594C5005.09 528.06 5176.94 568.702 5360.68 624.766C5499.08 667.107 5625.32 724.085 5752.74 777.796C5805.67 800.012 5853.5 820.268 5897.28 839.217C6156.17 951.736 6225.57 1011.07 6401.21 1031.98C6535.03 1047.92 6707.01 1039.16 6928.14 961.929C7108.74 898.678 7325.03 788.251 7580.52 611.175" stroke="#4A3AFF" stroke-width="7" stroke-miterlimit="10"/>
<path d="M174.135 398.161C409.515 506.694 623.49 656.615 805.872 840.786C823.254 858.558 840.766 876.593 858.147 895.019C1149.45 1204.09 1146.18 1384.56 1405.59 1565.16C1528.44 1650.63 1649.45 1712.18 1795.17 1746.29C1896.21 1769.34 1999.98 1778.14 2103.46 1772.43C2180.18 1767.6 2255.96 1752.84 2328.89 1728.52C2410.43 1702.35 2487.93 1664.96 2559.16 1617.44C2700.04 1525.96 2801.32 1417.36 2939.07 1290.73C3046.18 1193.53 3164.29 1109.18 3291 1039.42C3357 1002.05 3429.4 955.264 3515.65 910.963C3746.05 792.563 4010.04 676.647 4365.11 641.624C4490.03 628.505 4615.72 624.356 4741.23 629.209C4760.7 630.124 4780.44 631.3 4798.73 632.868C4983.37 647.991 5166.13 680.857 5344.48 731.011C5486.53 769.04 5611.73 825.496 5740.72 877.769C5793.65 899.201 5841.87 918.411 5886.83 936.446C6146.37 1040.99 6218.25 1094.83 6393.1 1108.82C6526.93 1119.53 6698 1105.42 6919.9 1027.27C7100.9 964.02 7319.54 854.377 7580.52 685.664" stroke="#4A3AFF" stroke-width="7" stroke-miterlimit="10"/>
<path d="M166.557 446.905C399.662 551.219 612.509 695.886 795.288 874.24C812.67 891.49 830.312 908.741 847.563 926.513C1142 1225.39 1143.31 1395.28 1399.06 1571.83C1524.65 1658.21 1641.61 1721.46 1789.94 1756.35C1891.56 1779.63 1996.02 1788.04 2100.06 1781.31C2177.14 1775.72 2253.06 1759.41 2325.63 1732.83C2406.61 1704.38 2483.71 1665.87 2555.11 1618.22C2700.96 1524 2807.73 1419.84 2943.51 1301.84C3039.3 1218.72 3152.61 1146.06 3299.11 1075.49C3365.63 1043.34 3436.46 1002.18 3521.27 965.719C3750.76 867.053 3993.84 781.455 4344.6 758.847C4470.31 749.575 4596.42 746.827 4722.41 750.614C4742.15 751.398 4761.62 752.443 4780.31 753.75C4965.29 765.878 5148.91 793.683 5329.19 836.865C5475.16 870.581 5598.53 926.644 5728.83 977.088C5781.1 997.736 5830.63 1016.29 5876.63 1033.15C6136.7 1130.38 6211.06 1178.08 6385.39 1185.01C6519.22 1190.36 6689.11 1171.15 6911.93 1092.22C7092.93 1028.05 7314.18 920.371 7580.52 760.284" stroke="#4A3AFF" stroke-width="7" stroke-miterlimit="10"/>
<path d="M159.107 495.65C389.884 595.815 601.55 735.228 784.703 907.695C802.084 924.292 819.727 940.758 836.977 957.747C1134.94 1245.25 1140.3 1406.64 1392.26 1578.23C1520.6 1665.66 1633.51 1730.61 1784.32 1766.29C1886.62 1789.76 1991.86 1797.78 2096.53 1790.07C2173.63 1783.67 2249.34 1765.83 2321.18 1737.14C2401.69 1706.29 2478.45 1666.44 2550.01 1618.35C2700.96 1521.65 2813.35 1422.33 2946.91 1312.94C3045.58 1232.44 3161.36 1169.19 3306.16 1111.43C3373.47 1084.51 3442.73 1049.23 3525.72 1019.95C3756.12 940.236 3976.85 885.741 4323.95 875.286C4444.57 871.627 4578 867.053 4703.59 871.365C4723.59 872.019 4742.8 872.934 4761.88 873.979C4946.91 883.104 5131.02 905.816 5312.72 941.934C5462.36 971.338 5584.81 1027.01 5716.54 1076.41C5769.47 1096.27 5818.74 1113.39 5865.92 1129.6C6126.51 1220.16 6203.74 1264.59 6376.9 1261.85C6510.72 1259.76 6679.57 1237.41 6903.18 1157.3C7084.31 1091.96 7308.3 986.497 7580 835.166" stroke="#4A3AFF" stroke-width="7" stroke-miterlimit="10"/>
<path d="M151.527 544.265C380.019 640.381 590.538 774.582 774.117 941.15C791.498 957.094 809.272 972.906 826.391 989.111C1128.02 1266.16 1137.42 1417.62 1385.6 1584.77C1516.28 1672.98 1625.41 1739.76 1778.96 1776.35C1881.74 1799.88 1987.52 1807.5 2092.61 1798.96C2169.96 1791.67 2245.68 1772.26 2317 1741.46C2396.85 1708.06 2473.23 1666.92 2545.05 1618.61C2700.96 1519.16 2819.49 1424.16 2950.17 1323.92C3051.85 1245.51 3170.25 1192.45 3313.09 1147.37C3381.44 1125.68 3455.8 1113.13 3530.03 1075.36C3770.88 1065.3 3960.38 970.815 4302.65 993.032C4423.53 1001 4559.05 989.895 4684.12 993.032C4704.38 993.685 4723.98 994.338 4742.8 995.253C4944.32 1004.79 5098.53 1015.9 5296.12 1047.53C5449.42 1072.49 5570.57 1127.9 5703.74 1175.73C5756.01 1194.81 5806.32 1211.01 5854.68 1226.3C6115.4 1308.89 6195.38 1343.92 6368.28 1337.38C6502.23 1332.02 6670.03 1302.49 6894.42 1221.73C7075.81 1156.39 7302.16 1051.84 7579.48 909.263" stroke="#4A3AFF" stroke-width="7" stroke-miterlimit="10"/>
<path d="M143.945 593.009C370.125 685.072 579.488 813.972 763.529 974.474C781.041 989.895 798.814 1004.92 815.804 1020.34C1121.74 1286.68 1135.07 1428.47 1379.45 1591.3C1513.41 1680.43 1617.96 1748.9 1774 1786.41C1877.66 1810.24 1984.46 1817.43 2090.39 1807.71C2176.51 1800.52 2247.21 1774.65 2314.38 1745.64C2393.64 1709.77 2469.75 1667.33 2541.91 1618.74C2702.78 1516.68 2827.98 1426.64 2955.66 1334.9C3060.21 1259.49 3181.75 1215.98 3321.58 1183.18C3391.37 1166.84 3464.03 1163.05 3536.04 1130.12C3776.89 1148.68 3944.17 1096.79 4283.04 1109.99C4404.58 1114.83 4541.67 1111.95 4666.34 1114.7C4686.73 1114.7 4706.6 1115.61 4725.28 1116.27C4930.2 1123.98 5079.97 1127.9 5281.09 1154.16C5437.92 1174.81 5557.89 1229.83 5692.49 1276.22C5744.77 1294.52 5795.47 1309.68 5845 1324.05C6106.38 1399.59 6188.84 1428.6 6361.09 1414.62C6495.04 1404.03 6661.66 1369.4 6886.97 1287.72C7068.49 1222.38 7297.45 1118.88 7580.26 985.06" stroke="#4A3AFF" stroke-width="7" stroke-miterlimit="10"/>
<path d="M136.498 641.624C360.262 729.774 568.399 853.321 752.945 1007.54C770.457 1022.44 788.361 1036.81 806.004 1051.32C1115.08 1306.93 1132.72 1438.92 1372.92 1597.31C1509.62 1687.35 1610.12 1757.66 1768.77 1795.82C1872.94 1819.91 1980.34 1826.8 2086.73 1816.21C2174.03 1808.23 2243.55 1780.27 2310.33 1749.56C2392.8 1711.66 2460.62 1667.23 2537.07 1618.87C2703.05 1514.33 2853.21 1451.47 2959.45 1345.88C3079.82 1294.52 3192.34 1196.51 3329.43 1219.11C3400.78 1230.88 3471.87 1212.84 3541.4 1184.87C3782.39 1231.92 3928.36 1202.26 4262.92 1227.09C4384.98 1236.1 4524.29 1234.01 4647.92 1235.97C4668.7 1235.97 4688.56 1235.97 4707.38 1237.15C4915.44 1243.03 5060.89 1239.37 5265.41 1260.02C5426.29 1276.09 5544.69 1330.85 5680.6 1375.8C5732.88 1393.31 5784.11 1407.56 5834.68 1420.89C6096.06 1489.5 6181.79 1511.58 6353.38 1491.07C6487.46 1474.99 6653.04 1435.26 6879 1352.67C7060.78 1286.55 7291.7 1184.87 7580.52 1059.81" stroke="#4A3AFF" stroke-width="7" stroke-miterlimit="10"/>
<path d="M128.92 690.238C350.397 774.659 557.362 893.086 742.361 1041.25C759.873 1055.5 777.777 1068.57 795.551 1082.81C1109.2 1327.71 1129.72 1449.9 1366.39 1603.98C1505.96 1694.8 1602.28 1766.94 1763.41 1806.01C1868.24 1830.21 1976.37 1836.71 2083.33 1825.22C2171.81 1816.47 2240.16 1786.02 2306.68 1754C2387.57 1714.8 2454.61 1668.27 2532.63 1619.01C2703.57 1511.58 2861.57 1456.17 2963.9 1356.72C3088.44 1310.98 3208.02 1219.24 3337.53 1254.92C3408.36 1274.39 3479.85 1262.76 3546.63 1239.63C3787.74 1315.17 3912.55 1307.98 4242.66 1344.18C4365.25 1357.25 4505.6 1356.2 4629.5 1357.25H4689.22C4900.67 1361.17 5042.07 1350.32 5249.73 1365.09C5414.4 1376.72 5531.36 1431.34 5668.71 1474.73C5720.99 1491.46 5772.61 1504.66 5824.36 1516.94C6085.73 1578.89 6174.6 1594.18 6345.54 1566.86C6479.62 1545.3 6644.16 1500.48 6870.9 1417.1C7052.81 1350.32 7286.87 1250.35 7580.65 1133.91" stroke="#4A3AFF" stroke-width="7" stroke-miterlimit="10"/>
<path d="M121.338 738.722C340.263 819.555 545.847 932.718 731.251 1074.45C748.894 1087.52 766.798 1100.58 784.571 1113.65C1101.62 1347.71 1126.58 1460.09 1359.59 1610.25C1502.04 1701.73 1594.83 1775.83 1757.92 1815.68C1863.33 1840.2 1972.18 1846.34 2079.67 1833.85C2169.45 1824.31 2236.5 1792.16 2302.62 1758.05C2381.95 1716.76 2448.34 1669.06 2527.93 1619.01C2703.96 1508.97 2869.67 1460.75 2967.29 1367.57C3096.15 1327.32 3215.6 1312.94 3344.59 1290.6C3418.55 1304.71 3486.77 1312.42 3551.33 1294.26C3792.45 1398.8 3895.82 1413.7 4221.75 1460.88C4344.86 1478.78 4487.04 1479.7 4610.41 1478.26C4631.58 1478.26 4651.84 1478.26 4670.53 1478.26C4885.38 1475.52 5022.07 1461.92 5233.39 1471.07C5401.98 1478.26 5517.38 1532.62 5656.3 1574.57C5708.57 1590.39 5760.84 1602.8 5813.12 1613.78C6074.49 1669.06 6165.97 1677.29 6336.65 1643.18C6470.86 1616.26 6634.22 1566.34 6862.01 1482.05C7044.05 1414.75 7280.2 1316.34 7579.87 1208.53" stroke="#4A3AFF" stroke-width="7" stroke-miterlimit="10"/>
<path d="M113.891 787.335C330.656 864.535 535.219 972.447 721.321 1107.77C738.833 1120.84 756.867 1132.99 774.641 1145.28C1095.87 1368.35 1124.49 1471.07 1353.32 1616.65C1498.64 1709.18 1586.59 1784.97 1752.83 1825.75C1859.14 1850.55 1969.01 1856.26 2077.32 1842.6C2168.8 1832.28 2234.8 1798.17 2299.49 1762.36C2377.9 1719.37 2443.24 1670.1 2524.14 1618.61C2705.01 1505.96 2878.69 1464.93 2971.87 1378.02C3104.91 1343.39 3226.19 1338.82 3352.82 1325.75C3427.7 1346.66 3494.88 1361.56 3557.08 1348.23C3798.2 1480.87 3880.27 1519.03 4201.89 1577.19C4325.52 1599.53 4469.4 1601.1 4592.38 1598.88C4613.81 1598.88 4634.07 1598.88 4652.89 1598.88C4870.87 1594.04 5003.39 1572.74 5218.11 1576.53C5390.35 1579.28 5504.44 1633.51 5644.8 1673.89C5697.07 1689.05 5749.35 1700.03 5803.58 1710.61C6064.95 1759.49 6160.09 1760.54 6329.59 1719.63C6463.81 1687.22 6626.12 1632.33 6854.69 1547.13C7036.87 1479.3 7276.15 1382.47 7580.78 1283.41" stroke="#4A3AFF" stroke-width="7" stroke-miterlimit="10"/>
<path d="M106.309 835.819C320.746 909.578 524.101 1012.29 710.733 1141.1C728.375 1154.16 746.41 1164.88 764.183 1176.51C1089.72 1388.48 1122 1481.53 1346.78 1623.06C1494.98 1716.23 1578.75 1793.86 1747.6 1835.55C1854.3 1860.51 1964.65 1865.86 2073.27 1851.36C2164.75 1840.12 2231.14 1804.05 2295.44 1766.42C2371.76 1721.72 2436.58 1670.89 2519.43 1619.27C2705.4 1503.87 2886.79 1470.16 2975.66 1389.39C3113.01 1360.25 3235.59 1364.7 3360.27 1362.34C3435.93 1389.92 3502.19 1412.13 3561.92 1403.64C3803.16 1564.9 3863.8 1625.8 4181.24 1694.93C4305.39 1721.85 4450.97 1722.11 4573.3 1721.07C4594.99 1721.07 4615.38 1721.07 4634.2 1721.07C4855.58 1714.14 4983.78 1691.14 5201.9 1683.69C5377.8 1677.68 5490.58 1735.97 5632.38 1775.17C5685.17 1789.41 5738.7 1800.75 5792.73 1809.15C6054.1 1851.75 6152.38 1845.48 6321.23 1797.78C6455.57 1759.88 6616.71 1700.03 6846.06 1613.91C7029.02 1545.56 7270.27 1450.16 7580.39 1359.86" stroke="#4A3AFF" stroke-width="7" stroke-miterlimit="10"/>
<path d="M98.7285 856.336C310.866 926.951 513.007 1024.64 700.147 1146.98C717.79 1158.74 735.955 1169.45 753.859 1180.3C1083.58 1381.16 1119.78 1464.54 1340.25 1601.89C1491.32 1695.98 1570.91 1775.43 1742.24 1817.91C1849.59 1843.11 1960.69 1848.12 2069.87 1832.67C2163.18 1820.52 2228.13 1782.62 2292.04 1743.15C2366.4 1695.85 2430.17 1643.57 2514.99 1591.3C2705.92 1473.69 2895.28 1446.63 2979.71 1372.27C3121.24 1348.62 3245.26 1362.47 3367.98 1370.05C3444.43 1404.42 3509.64 1433.83 3567.01 1430.3C3808.39 1620.05 3847.73 1704.73 4160.72 1783.14C4285.53 1814.64 4432.81 1815.29 4554.87 1813.33L4616.03 1812.16C4840.81 1808.23 4964.57 1767.72 5186.09 1759.88C5366.04 1753.35 5477.12 1807.58 5620.36 1844.83C5673.73 1858.33 5727.84 1868.76 5782.41 1876.06C6043.13 1912.39 6145.19 1898.54 6313.25 1844.17C6447.73 1800.79 6607.82 1735.97 6837.96 1648.93C7020.92 1580.06 7264.91 1486.23 7580.52 1404.68" stroke="#4A3AFF" stroke-width="7" stroke-miterlimit="10"/>
<path d="M90.8887 864.57C300.65 931.597 501.536 1023.74 689.171 1139.01C706.944 1150.24 725.109 1160.18 743.013 1170.24C1077.57 1360.25 1116.91 1434.48 1333.72 1567.25C1487.79 1662 1563.07 1743.42 1737.01 1786.8C1845.05 1812.05 1956.91 1816.48 2066.6 1799.87C2160.96 1786.8 2225.13 1747.6 2288.12 1705.78C2361.17 1657.82 2424.55 1603.72 2510.28 1550.53C2706.31 1429.91 2903.39 1410.43 2983.5 1342.35C3129.35 1324.18 3259.38 1327.06 3375.56 1365.09C3458.81 1392.4 3517.09 1443.5 3571.59 1443.5C3812.97 1661.74 3830.87 1770.21 4139.68 1859.2C4264.88 1895.53 4414.12 1896.45 4535.53 1893.7C4557.75 1893.7 4578.4 1892.66 4597.08 1892.13C4825.26 1886.12 4944.58 1838.16 5169.62 1824.57C5353.23 1813.46 5463.01 1867.7 5607.68 1902.98C5661.57 1915.91 5716.21 1925.43 5771.3 1931.47C6031.89 1961.79 6137.22 1940.23 6304.63 1879.2C6439.11 1830.19 6598.15 1760.4 6829.07 1672.59C7012.04 1603.19 7258.77 1510.93 7579.87 1437.36" stroke="#4A3AFF" stroke-width="7" stroke-miterlimit="10"/>
<path d="M83.7012 872.542C291.172 936.392 490.841 1023.27 678.977 1131.56C696.881 1142.14 715.177 1151.29 732.951 1160.7C1071.69 1338.95 1114.55 1403.25 1327.18 1532.62C1484.01 1628.02 1555.1 1711.4 1732.31 1755.57C1840.91 1781.57 1953.55 1786.01 2063.86 1768.64C2159.52 1754.65 2222.77 1713.1 2284.98 1670.1C2356.6 1620.57 2419.2 1564.64 2507.15 1510.67C2708.01 1387.43 2912.93 1375.28 2988.86 1313.34C3138.76 1300.27 3271.4 1314.77 3384.31 1361.04C3469.13 1395.8 3525.72 1452.51 3578.25 1458.92C3819.63 1705.78 3816.1 1837.9 4120.86 1936.96C4246.58 1978.12 4397.26 1979.17 4518.54 1976.16L4580.49 1974.07C4811.93 1966.1 4926.94 1910.56 5155.51 1891.48C5343.04 1875.67 5451.25 1930.69 5597.49 1964.01C5651.89 1976.49 5707.08 1985.22 5762.67 1990.15C6023 2014.58 6131.73 1985.18 6298.49 1917.49C6432.96 1862.99 6590.83 1788.24 6822.67 1699.51C7068.08 1601.87 7321.7 1526.3 7580.52 1473.69" stroke="#4A3AFF" stroke-width="7" stroke-miterlimit="10"/>
<path d="M76.1211 875.155C281.345 936.141 479.799 1017.94 668.391 1119.27C686.426 1129.2 704.722 1137.7 722.496 1146.32C1065.81 1313.21 1112.07 1368.48 1320.65 1493.42C1480.61 1589.47 1547.26 1674.81 1726.43 1719.89C1835.71 1746 1949.14 1749.83 2059.94 1731.13C2156.65 1716.23 2219.12 1672.85 2280.67 1628.02C2350.72 1576.92 2412.53 1519.29 2501.79 1464.54C2707.75 1338.69 2919.99 1333.85 2991.99 1278.05C3146.2 1270.99 3280.94 1296.35 3391.11 1350.58C3477.36 1393.05 3532.38 1456.3 3582.44 1467.41C3823.94 1742.76 3798.85 1898.67 4099.43 2007.79C4225.67 2053.79 4378.18 2054.83 4498.94 2050.78C4521.55 2050 4542.59 2048.95 4561.28 2048.17C4796.51 2038.11 4906.68 1975.25 5138.52 1950.55C5329.71 1930.16 5436.61 1984.66 5584.29 2016.94C5639.24 2028.67 5694.97 2036.36 5751.04 2039.94C6011.24 2058.62 6123.24 2021.12 6289.34 1946.89C6423.82 1886.78 6580.64 1807.19 6813.26 1717.41C7060.84 1619.25 7317.98 1547.2 7580.52 1502.44" stroke="#4A3AFF" stroke-width="7" stroke-miterlimit="10"/>
<path d="M68.541 867.706C271.556 925.774 468.807 1002.37 657.806 1096.53C675.84 1105.81 694.267 1113.65 712.04 1121.62C1060.06 1276.75 1110.24 1322.22 1314.11 1443.76C1477.08 1540.46 1539.42 1627.89 1721.2 1673.63C1831.09 1700.04 1945.25 1703.51 2056.54 1683.82C2154.43 1667.88 2216.11 1622.8 2276.88 1576.14C2345.49 1523.87 2406.52 1464.15 2497.35 1408.6C2708.27 1280.14 2928.61 1282.36 2996.05 1232.97C3154.44 1231.4 3291 1268.25 3398.82 1330.46C3486.12 1380.9 3539.96 1450.16 3587.66 1466.11C3829.17 1770.08 3782.38 1949.63 4079.04 2068.69C4205.55 2119.65 4360.02 2120.96 4480.38 2115.99C4503.12 2115.08 4524.29 2113.9 4542.98 2112.99C4781.22 2100.97 4887.08 2030.4 5122.31 2000.21C5317.3 1975.12 5422.89 2029.74 5571.74 2060.45C5627.29 2071.5 5683.61 2078.27 5740.2 2080.71C6000.26 2093.78 6115.4 2048.04 6280.85 1967.28C6415.32 1901.94 6571.23 1816.99 6804.64 1726.43C7054.01 1627.27 7314.36 1558.35 7580.13 1521.12" stroke="#4A3AFF" stroke-width="7" stroke-miterlimit="10"/>
<path d="M61.0918 860.257C261.883 915.643 457.891 987.096 647.22 1073.92C665.385 1082.55 683.812 1089.48 701.585 1096.79C1054.44 1240.55 1106.71 1276.48 1307.58 1394.1C1473.42 1491.33 1531.57 1580.85 1715.84 1627.5C1826.38 1654.29 1941.33 1657.37 2053.14 1636.52C2152.2 1619.4 2213.1 1572.87 2273.22 1524.26C2340.39 1470.03 2400.51 1409 2492.9 1352.67C2708.93 1221.99 2937.24 1230.88 3000.1 1187.75C3144.36 1189.47 3285.21 1231.91 3406.4 1310.2C3494.61 1368.75 3547.54 1443.89 3592.76 1464.8C3834.4 1797.26 3765.79 2000.6 4058.66 2129.59C4185.42 2185.65 4341.85 2186.69 4461.69 2181.21C4484.82 2180.16 4505.99 2178.85 4524.81 2177.68C4766.19 2163.3 4868.13 2086.2 5106.76 2049.87C5305.27 2020.2 5409.82 2074.83 5560.11 2103.97C5612.38 2114.03 5667.53 2115.6 5730 2121.35C5989.02 2145.27 6108.34 2074.96 6273.13 1987.53C6407.61 1916.18 6562.47 1826.79 6796.66 1735.31C7048.09 1635.17 7311.81 1569.24 7580.78 1539.29" stroke="#4A3AFF" stroke-width="7" stroke-miterlimit="10"/>
<path d="M53.5137 852.808C252.177 905.582 447.005 971.862 636.636 1051.19C654.932 1059.03 673.359 1065.43 691.263 1071.96C1048.56 1202.65 1104.89 1230.74 1301.05 1344.44C1470.02 1442.32 1523.21 1533.8 1710.62 1581.37C1821.98 1608.51 1937.9 1611.19 2050.4 1589.21C2150.51 1570.91 2210.62 1522.82 2270.08 1472.38C2335.43 1416.58 2395.02 1353.85 2488.98 1296.74C2710.11 1162.92 2946.39 1179.12 3004.67 1142.66C3152.79 1150.43 3295.28 1201.96 3414.11 1290.73C3502.85 1357.25 3555.12 1438.4 3597.86 1464.15C3839.63 1825.09 3749.06 2052.22 4038.14 2191.27C4165.3 2252.3 4323.56 2253.21 4443.27 2247.07C4466.53 2245.89 4487.96 2244.33 4506.65 2243.15C4751.43 2226.55 4848.92 2141.48 5091.08 2100.18C5293.51 2065.81 5396.1 2120.83 5548.48 2148.14C5605.38 2156.06 5662.66 2160.94 5720.07 2162.78C5979.48 2179.64 6101.41 2102.53 6265.69 2008.57C6400.03 1931.6 6553.98 1837.38 6788.43 1744.98C7041.73 1644.07 7308.64 1581.44 7580.39 1559.15" stroke="#4A3AFF" stroke-width="7" stroke-miterlimit="10"/>
<path d="M45.9316 845.359C242.558 895.653 436.266 956.731 626.179 1028.32C644.475 1035.5 662.902 1041.38 680.806 1047C1042.81 1166.19 1102.53 1184.74 1295.03 1295.3C1466.49 1393.05 1515.37 1486.75 1705.26 1535.11C1817.09 1562.64 1933.64 1564.96 2046.48 1541.9C2147.76 1522.43 2207.22 1472.77 2265.77 1420.5C2330.07 1363.26 2388.48 1298.7 2484.15 1240.81C2710.1 1104.37 2954.62 1128.16 3008.2 1097.06C3160.6 1110.58 3305.08 1170.93 3421.82 1269.82C3510.82 1344.57 3562.57 1431.47 3602.95 1462.05C3844.72 1851.62 3732.2 2103.32 4017.75 2251.51C4145.17 2317.64 4305.26 2318.42 4424.45 2311.63C4447.97 2310.32 4469.53 2308.62 4488.22 2307.18C4736.52 2288.37 4829.44 2195.97 5075.13 2149.19C5281.36 2109.98 5382.51 2165.39 5536.06 2191.01C5593.49 2198.49 5651.32 2202.46 5709.22 2202.9C5969.03 2212.7 6093.57 2128.8 6257.19 2028.18C6391.67 1945.71 6544.7 1846.53 6779.94 1753.74C7035.27 1651.92 7305.51 1592.46 7580 1577.71" stroke="#4A3AFF" stroke-width="7" stroke-miterlimit="10"/>
<path d="M38.6133 837.911C262.479 894.758 463.344 952.651 615.724 1005.71C634.281 1012.24 652.708 1017.21 670.482 1022.44C1037.32 1129.07 1100.31 1139.01 1288.11 1244.6C1463.09 1343.39 1508.18 1439.19 1700.16 1488.45C1812.6 1516.32 1929.91 1518.24 2043.21 1494.07C2145.67 1473.29 2204.48 1422.33 2262.24 1368.09C2324.97 1309.29 2382.6 1243.03 2479.83 1184.35C2710.89 1045.31 2963.37 1076.28 3012.38 1051.97C3168.96 1071.39 3315.2 1140.46 3429.66 1249.04C3518.79 1332.02 3575.9 1419.58 3608.31 1460.23C3908.89 1838.29 3715.34 2154.29 3997.49 2311.89C4125.04 2383.24 4287.36 2383.77 4406.02 2376.32C4429.8 2374.88 4451.37 2372.92 4470.19 2371.35C4721.5 2350.31 4809.97 2250.6 5059.32 2198.46C5269.33 2154.42 5369.05 2210.09 5524.17 2233.87C5581.99 2242.45 5640.49 2245.55 5698.9 2243.15C5958.83 2234.26 6086.25 2155.07 6249.35 2048.04C6383.69 1959.83 6535.55 1855.8 6772.09 1761.71C7029.61 1659.05 7303.26 1602.73 7580.39 1595.35" stroke="#4A3AFF" stroke-width="7" stroke-miterlimit="10"/>
<path d="M30.9023 830.461C257.251 885.609 456.809 937.883 605.007 982.969C623.695 988.719 642.122 993.031 659.896 997.605C1031.83 1091.7 1097.83 1093.13 1281.44 1195.33C1459.57 1294.65 1500.21 1392.79 1694.67 1442.84C1807.82 1471.08 1925.98 1472.6 2039.81 1447.29C2143.32 1425.07 2201.34 1372.8 2258.32 1316.6C2319.74 1256.23 2375.94 1188.27 2475.26 1128.81C2711.28 987.02 2970.95 1025.31 3016.43 1007.15C3195.99 1033.28 3337.14 1126.85 3437.24 1229.31C3526.24 1320.79 3582.56 1415.27 3613.28 1459.31C3904.05 1875.8 3698.22 2206.17 3976.84 2373.31C4104.53 2449.76 4269.06 2450.02 4387.2 2441.92C4411.25 2440.22 4433.07 2438.26 4451.76 2436.56C4706.47 2413.17 4790.63 2305.88 5043.38 2248.51C5257.05 2199.76 5355.32 2255.83 5511.89 2277.78C5570.3 2285.7 5629.35 2287.84 5688.18 2284.18C5948.25 2270.2 6078.67 2182.38 6241.25 2068.69C6375.46 1974.86 6526.4 1866 6763.99 1770.99C6948.13 1697.42 7215.77 1617.57 7580.52 1614.17" stroke="#4A3AFF" stroke-width="7" stroke-miterlimit="10"/>
<path d="M23.3223 823.012C252.023 876.854 450.274 922.854 594.421 960.361C613.24 965.196 631.667 968.855 649.44 973.429C1025.69 1054.06 1095.47 1047.13 1274.91 1145.67C1454.34 1244.21 1492.37 1345.75 1689.44 1396.58C1803.18 1425.29 1922.13 1426.46 2036.41 1399.98C2140.96 1376.2 2198.47 1322.88 2254.66 1264.85C2314.65 1203.04 2370.45 1133.25 2470.82 1073.01C2711.93 929.258 2979.45 974.082 3020.48 962.19C3204.36 993.816 3345.63 1098.36 3444.95 1209.18C3533.69 1308.24 3588.71 1410.3 3618.37 1457.48C3897.91 1911.61 3680.97 2257.26 3956.46 2433.69C4084.14 2515.49 4250.76 2515.36 4368.64 2506.61C4392.82 2504.78 4414.77 2502.56 4433.99 2500.73C4691.96 2474.59 4771.81 2360.63 5027.95 2297.64C5245.42 2244.19 5342.39 2300.65 5500.39 2320.78C5559.39 2328.07 5618.99 2329.3 5678.25 2324.43C5938.45 2305.22 6071.62 2208.78 6233.8 2088.55C6367.88 1989.1 6517.91 1875.41 6756.54 1779.48C6940.94 1705.39 7211.07 1626.98 7581.3 1632.6" stroke="#4A3AFF" stroke-width="7" stroke-miterlimit="10"/>
<path d="M15.873 815.563C246.796 867.837 443.74 907.826 583.836 937.883C602.785 941.934 621.212 945.071 638.985 948.207C1019.81 1016.29 1093.12 1001.13 1268.37 1096.14C1452.77 1195.98 1484.4 1298.7 1684.08 1350.45C1798.47 1379.66 1918.27 1380.43 2033.02 1352.67C2138.61 1327.19 2195.59 1272.82 2251 1213.1C2309.55 1149.59 2364.44 1078.24 2466.5 1017.08C2712.45 870.058 2989.9 903.644 3024.53 917.105C3203.31 986.236 3353.99 1069.61 3452.66 1189.06C3541.01 1296.09 3595.5 1405.21 3623.6 1456.83C3890.85 1947.54 3663.59 2309.67 3936.07 2495.37C4063.75 2582.4 4232.6 2581.75 4349.95 2572.47C4374.52 2570.51 4396.48 2568.16 4415.3 2566.2C4676.67 2538.23 4751.95 2416.44 5011.62 2347.96C5232.74 2289.67 5328.27 2346.65 5487.84 2364.95C5547.45 2371.61 5607.6 2371.91 5667.27 2365.86C5927.6 2341.55 6063.64 2236.35 6225.17 2109.59C6359.26 2005.04 6508.37 1885.86 6747.92 1789.02C6932.45 1714.4 7205.32 1637.69 7580.91 1651.94" stroke="#4A3AFF" stroke-width="7" stroke-miterlimit="10"/>
<path d="M8.29492 808.115C241.57 859.473 437.077 892.406 573.252 914.883C592.332 918.02 610.759 920.633 628.663 923.116C1013.93 978.265 1090.9 955.134 1261.84 1046.35C1450.03 1146.98 1476.16 1251.52 1678.86 1303.8C1793.91 1333.39 1914.53 1333.75 2029.75 1304.84C2136.13 1277.53 2192.72 1222.38 2247.21 1161.09C2304.45 1095.75 2358.43 1022.96 2462.06 961.145C2713.11 811.513 2996.44 868.098 3028.59 871.888C3224.62 895.281 3362.23 1040.73 3459.85 1168.8C3525.88 1258.15 3582.3 1354.21 3628.18 1455.39C3883.01 1981.78 3645.69 2361.29 3915.69 2556.27C4043.24 2648.53 4214.43 2647.75 4331.4 2637.68C4356.1 2635.59 4378.32 2632.98 4396.74 2630.89C4661.25 2600.18 4732.21 2471.19 4995.55 2397.62C5220.2 2334.37 5314.55 2392.26 5475.56 2408.46C5535.78 2414.48 5596.48 2413.82 5656.56 2406.5C5917.15 2377.1 6055.67 2262.75 6216.94 2129.85C6350.76 2018.9 6498.96 1895.66 6739.69 1798.04C6924.48 1722.9 7199.7 1647.63 7580.91 1670.63" stroke="#4A3AFF" stroke-width="7" stroke-miterlimit="10"/>
<path d="M0.714844 800.666C235.95 849.803 430.281 876.723 562.666 892.144C1000.73 943.111 1080.97 905.212 1255.3 996.691C1446.11 1096.92 1468.71 1204.61 1673.5 1258.06C1789.19 1288.14 1910.66 1288.14 2026.35 1258.06C2245.64 1197.94 2251.66 1027.79 2457.62 905.212C2713.63 752.835 3004.67 819.876 3032.64 826.802C3405.35 918.281 3579.17 1327.45 3633.79 1454.08C3875.96 2014.98 3628.57 2412.91 3895.17 2617.17C4049.9 2735.7 4272.59 2708.64 4378.71 2695.58C4646.48 2662.9 4713.13 2526.47 4979.86 2447.28C5280.44 2357.89 5346.7 2486.48 5646.36 2447.28C6124.41 2384.16 6201.13 2023.86 6731.06 1806.93C6915.98 1731.26 7193.82 1657.56 7580.52 1689.31" stroke="#4A3AFF" stroke-width="7" stroke-miterlimit="10"/>
<path d="M7.77344 817C238.827 866.137 429.89 895.411 562.276 911.615C988.705 965.457 1071.95 929.911 1245.24 1021.52C1432.52 1120.84 1457.48 1225.39 1657.17 1279.23C1770.44 1309.15 1889.35 1310.68 2003.35 1283.67C2219.77 1232.57 2228.13 1066.61 2430.96 948.729C2681.48 802.103 2963.77 863.132 2996.44 868.49C3302.11 918.019 3470.7 1219.24 3553.69 1379.98C3570.67 1412.79 3582.96 1441.01 3592.89 1461.4C3841.2 1992.37 3606.74 2374.75 3869.42 2567.64C4026.25 2682.51 4250.77 2653.63 4361.33 2641.21C4462.64 2630.09 4560.85 2599.47 4650.54 2551.04C4742.02 2505.17 4827.62 2453.42 4968.36 2419.05C5011.49 2408.59 5049.91 2402.84 5084.41 2397.88C5293.51 2367.69 5374.15 2442.05 5626.11 2397.22C5723.58 2380.11 5817.44 2346.57 5903.69 2298.04C6137.75 2167.35 6284.11 1932.12 6646.51 1760.4C6667.77 1750.3 6689.98 1740.45 6713.16 1730.87C6899.78 1653.24 7181.8 1576.01 7574.38 1605.68" stroke="#4A3AFF" stroke-width="7" stroke-miterlimit="10"/>
<path d="M14.8281 833.336C241.177 882.473 429.496 912.923 562.012 930.957C976.549 987.543 1062.41 954.611 1235.18 1046.48C1419.05 1143.71 1446.24 1247.34 1640.3 1300.27C1751.25 1330.11 1867.7 1333.25 1980.09 1309.42C2193.24 1266.68 2204.61 1106.07 2404.17 992.117C2649.33 852.155 2924.17 897.241 2959.98 910.178C3242.78 1011.46 3426.26 1240.15 3511.73 1391.62C3529.11 1422.46 3541.14 1449.51 3550.94 1468.59C3804.99 1970.28 3584.39 2336.2 3842.89 2518.11C4001.02 2629.19 4228.02 2598.61 4343.03 2586.72C4445.14 2576.23 4544.67 2548.16 4637.2 2503.73C4730.12 2462.31 4817.03 2417.48 4956.08 2390.95C4999.34 2382.59 5038.02 2379.45 5072.52 2374.49C5280.96 2344.3 5358.07 2402.98 5604.94 2347.04C5701.29 2324.84 5793.55 2287.62 5878.33 2236.75C6103.63 2106.06 6257.32 1862.6 6627.03 1685.13C6648.6 1674.94 6671.07 1664.74 6694.47 1654.81C6882.66 1575.23 7168.86 1494.46 7567.45 1521.91" stroke="#4A3AFF" stroke-width="7" stroke-miterlimit="10"/>
<path d="M21.8867 849.671C243.531 898.678 428.975 930.956 561.36 950.951C964.135 1009.89 1052.87 979.963 1224.85 1071.83C1405.2 1167.49 1434.74 1269.17 1624.1 1321.83C1732.66 1351.42 1846.54 1355.89 1957.09 1334.9C2166.19 1300.27 2181.22 1145.02 2377.51 1035.5C2617.32 901.683 2883.39 935.923 2923.78 951.605C3148.34 1041.61 3339.24 1199.39 3469.91 1402.99C3487.69 1431.87 3499.58 1457.74 3509.12 1475.65C3768.66 1947.02 3562.18 2297.91 3816.1 2468.84C3976.06 2576.26 4205.16 2543.72 4324.6 2532.61C4427.54 2522.57 4528.36 2496.97 4623.61 2456.69C4718.23 2419.7 4806.57 2381.93 4943.53 2362.99C4987.18 2356.97 5026 2356.32 5060.5 2351.36C5268.68 2321.04 5341.6 2364.42 5583.24 2297.12C5678.29 2269.71 5768.94 2228.87 5852.46 2175.85C6069 2044.25 6230.66 1793.86 6606.91 1610.12C6628.6 1599.66 6651.34 1589.25 6675.13 1578.89C6864.88 1497.47 7155.4 1413.18 7559.87 1438.53" stroke="#4A3AFF" stroke-width="7" stroke-miterlimit="10"/>
<path d="M28.9414 865.876C245.881 915.013 428.58 948.991 561.227 970.423C952.24 1031.71 1043.98 1004.79 1214.66 1096.79C1391.35 1191.02 1423.76 1290.47 1607.37 1343C1713.66 1372.74 1825.14 1378.98 1934.09 1361.3C2140.18 1335.16 2157.82 1184.87 2350.98 1079.67C2585.43 950.951 2839.61 1002.18 2887.57 993.424C3163.98 1049.23 3337.79 1280.93 3428.22 1414.75C3446.39 1441.54 3458.02 1466.11 3468.21 1482.96C3733.51 1924.41 3541.14 2259.35 3790.35 2419.05C3952.41 2522.81 4183.2 2488.44 4307.22 2477.86C4411.07 2468.3 4513.22 2445.19 4611.06 2409.12C4707.51 2376.58 4796.9 2346 4932.16 2334.5C4976.07 2330.71 5015.02 2332.67 5049.78 2327.7C5257.7 2297.38 5326.44 2324.96 5563.64 2246.81C5664.13 2213.61 5746.6 2166.05 5828.67 2114.3C6036.72 1982.44 6205.57 1723.68 6589 1534.58C6610.78 1523.87 6633.78 1513.2 6658 1502.57C6849.46 1419.06 7144.16 1331.24 7554.51 1354.5" stroke="#4A3AFF" stroke-width="7" stroke-miterlimit="10"/>
<path d="M35.8711 882.212C247.714 931.218 428.061 966.895 561.361 989.111C940.351 1052.62 1034.45 1029.36 1205.12 1120.84C1378.15 1213.89 1412.52 1310.98 1591.56 1363.26C1695.37 1392.98 1804.24 1400.72 1911.22 1386C2113.39 1366.66 2134.56 1223.03 2324.45 1122.28C2553.41 1000.87 2798.32 1047.53 2851.64 1034.85C3119.81 1085.56 3293.49 1301.18 3386.67 1426.12C3405.23 1450.95 3416.73 1474.34 3427.18 1490.02C3698.09 1901.28 3520.23 2220.41 3764.48 2369.26C3928.62 2469.36 4161.25 2433.03 4289.58 2423.23C4420.27 2413.3 4512.4 2386.25 4598.39 2361.68C4696.67 2333.58 4788.15 2292.81 4920.53 2306.01C4959.67 2310.23 4999.18 2309.57 5038.15 2304.05C5245.94 2273.73 5310.24 2286.14 5542.86 2196.36C5640.22 2158.86 5721.25 2107.24 5804.23 2052.61C6003.79 1920.88 6179.83 1654.16 6570.32 1458.92C6592.36 1447.94 6615.62 1436.96 6640.1 1425.99C6833.13 1340.65 7132.01 1249.3 7548.37 1270.34" stroke="#4A3AFF" stroke-width="7" stroke-miterlimit="10"/>
<path d="M42.9258 898.678C250.586 947.685 427.666 985.06 560.444 1008.71C928.064 1074.06 1025.16 1054.19 1195.06 1145.93C1364.95 1237.67 1401.41 1332.29 1575.09 1384.69C1726.43 1430.3 1852.54 1420.5 1888.74 1412C2081.76 1366.26 2111.56 1262.37 2298.31 1166.06C2521.78 1050.79 2757.67 1093.27 2815.96 1076.8C3075.76 1122.54 3249.18 1321.57 3345.5 1437.88C3364.32 1460.75 3375.69 1482.96 3386.27 1497.6C3662.81 1878.67 3499.84 2181.6 3739.13 2320.12C3905.62 2416.57 4139.68 2378.28 4272.59 2369.13C4405.5 2359.98 4498.68 2335.41 4586.24 2314.63C4686.21 2290.98 4780.83 2255.56 4909.42 2278.17C4948.23 2285.35 4987.94 2286.28 5027.04 2280.92C5234.57 2250.6 5294.56 2247.85 5522.47 2146.57C5616.83 2104.76 5696.02 2048.95 5779.14 1991.98C5970.33 1861.29 6153.69 1585.55 6551.1 1384.17C6573.32 1372.93 6596.85 1361.69 6621.68 1350.45C6816.4 1263.15 7119.46 1168.28 7541.71 1187.1" stroke="#4A3AFF" stroke-width="7" stroke-miterlimit="10"/>
<path d="M49.9844 914.622C252.94 964.02 427.145 1003.22 560.053 1027.79C915.912 1094.7 1015.89 1078.63 1185 1170.37C1350.97 1260.54 1390.17 1353.33 1558.76 1405.6C1705.91 1451.21 1828.49 1445.59 1865.22 1437.49C2054.45 1395.41 2087.38 1301.31 2271.13 1209.44C2489.11 1100.19 2715.46 1138.74 2779.24 1117.97C3030.81 1158.61 3203.58 1340.13 3303.16 1448.99C3317.86 1466.7 3331.64 1485.15 3344.46 1504.27C3626.35 1855.15 3478.67 2141.74 3712.21 2270.07C3881.18 2362.73 4116.68 2322.34 4254.03 2314.11C4386.16 2306.01 4483.26 2283.66 4572.52 2266.8C4674.32 2247.59 4772.07 2218.45 4896.75 2249.42C4935.34 2259.64 4975.57 2262.22 5015.15 2257C5222.55 2226.55 5278.09 2208.91 5501.43 2095.87C5592.91 2049.74 5670.02 1990.02 5753.79 1930.16C5936.75 1799.48 6127.29 1515.9 6531.63 1308.37C6554.02 1296.87 6577.81 1285.37 6602.99 1273.87C6799.02 1184.61 7106.52 1086.21 7534.78 1102.94" stroke="#4A3AFF" stroke-width="7" stroke-miterlimit="10"/>
<path d="M57.0391 930.696C255.29 979.833 426.62 1020.34 559.789 1047C903.756 1115.74 1006.61 1103.33 1175.58 1195.07C1338.03 1283.8 1379.58 1374.24 1542.94 1426.25C1686.7 1471.86 1805.1 1470.42 1842.87 1462.71C2028.44 1424.68 2065.03 1340 2245.12 1252.44C2457.62 1149.33 2675.21 1183.83 2743.69 1159.52C2986.9 1195.07 3158.75 1360.38 3262.12 1460.09C3276.95 1476.34 3290.87 1493.4 3303.81 1511.19C3591.32 1831.76 3458.93 2101.75 3686.72 2220.15C3858.18 2309.14 4094.98 2266.93 4236.78 2259.35C4370.08 2252.04 4469.4 2232.04 4560.23 2219.1C4668.19 2204.26 4777.71 2204.83 4885.51 2220.8C4931.51 2226.68 4970.19 2238.18 5004.3 2233.87C5211.44 2203.29 5262.54 2171.01 5481.31 2046.08C5569.39 1995.77 5645.06 1931.73 5729.61 1869.26C5904.6 1739.63 6101.93 1447.03 6513.73 1233.36C6536.2 1221.73 6560.38 1209.84 6586 1197.94C6783.86 1106.47 7095.67 1004.79 7529.42 1019.43" stroke="#4A3AFF" stroke-width="7" stroke-miterlimit="10"/>
<path d="M64.752 953.173C258.298 1002.18 426.884 1044.65 560.053 1072.49C891.735 1142.66 997.46 1133.91 1164.87 1226.04C1323.91 1313.34 1367.69 1401.55 1525.96 1453.43C1665.01 1499.04 1780.27 1501.65 1819.09 1494.46C2001.26 1460.88 2040.6 1385.08 2217.94 1301.97C2424.82 1205 2633.39 1235.45 2706.84 1207.35C2942.07 1237.8 3111.96 1385.87 3219.65 1478.13C3234.62 1492.89 3248.72 1508.51 3261.86 1524.91C3553.95 1815.16 3438.16 2068.43 3659.93 2177.02C3834.14 2262.36 4071.99 2218.32 4218.36 2211.39C4352.57 2204.99 4454.24 2187.35 4546.64 2178.33C4651.97 2168.01 4750.12 2176.76 4873.36 2199.11C4920.01 2207.6 4958.56 2221.33 4992.54 2216.36C5199.42 2185.78 5246.2 2138.86 5460.4 2001.78C5545.34 1947.28 5619.18 1879.2 5704.39 1813.85C5871.54 1685.52 6075.67 1383.91 6493.87 1163.97C6516.61 1151.94 6540.91 1139.92 6566.92 1127.64C6766.35 1034.59 7081.95 929.127 7522.11 941.542" stroke="#4A3AFF" stroke-width="7" stroke-miterlimit="10"/>
<path d="M71.1562 1009.76C259.998 1058.77 425.708 1102.54 559.008 1132.21C879.582 1203.69 988.182 1199.25 1154.81 1290.73C1310.32 1376.59 1356.46 1462.71 1509.62 1514.33C1644.49 1559.94 1756.09 1566.6 1796.08 1559.94C1974.86 1531.06 2017.08 1463.88 2191.28 1385.21C2392.54 1293.73 2592.1 1320.92 2670.64 1288.77C2897.25 1314.91 3052.9 1465.98 3177.96 1529.62C3194.56 1547.39 3208.93 1561.77 3220.44 1571.96C3517.49 1831.76 3418.29 2068.56 3633.8 2167.35C3810.88 2248.77 4049.77 2202.9 4200.58 2196.76C4335.71 2191.27 4439.74 2175.98 4533.7 2170.62C4640.86 2164.74 4740.84 2182.12 4861.07 2210.48C4908.38 2221.59 4946.8 2237.53 4980.65 2232.43C5187.4 2201.85 5229.74 2140.96 5439.23 1991.19C5521.17 1932.78 5593.18 1860.51 5679.04 1792.16C5838.47 1665.27 6049.27 1354.37 6474.39 1128.29C6497.31 1116.18 6521.92 1103.81 6548.23 1091.18C6749.36 996.822 7069.54 887.832 7515.18 898.678" stroke="#4A3AFF" stroke-width="7" stroke-miterlimit="10"/>
<path d="M77.8203 1060.73C262.349 1109.73 425.185 1154.95 558.615 1186.18C867.558 1258.84 979.556 1258.84 1144.74 1350.84C1296.73 1435.13 1345.22 1519.16 1493.15 1570.65C1623.84 1616.13 1731.79 1626.32 1773.08 1620.7C1948.6 1596.79 1993.55 1538.11 2165.14 1463.88C2361.17 1378.94 2551.32 1401.55 2634.96 1365.61C2853.21 1386 3007.28 1523.35 3136.66 1576.27C3150.22 1589.8 3164.58 1602.49 3179.66 1614.3C3481.28 1843.91 3399.08 2062.94 3608.18 2152.98C3788.27 2230.47 4027.95 2182.77 4183.2 2177.55C4319.38 2172.84 4425.75 2159.9 4521.16 2158.73C4630.15 2157.29 4732.08 2183.56 4849.7 2217.67C4897.53 2231.52 4935.95 2249.55 4969.8 2243.8C5176.15 2213.09 5214.32 2137.69 5419.1 1975.77C5497.51 1913.44 5568.21 1837.12 5654.34 1765.76C5806.06 1640.57 6023.39 1320.13 6455.44 1087.78C6478.44 1074.71 6503.41 1062.69 6530.07 1049.88C6732.76 952.781 7056.73 840.785 7508.78 848.496" stroke="#4A3AFF" stroke-width="7" stroke-miterlimit="10"/>
<path d="M85.1367 1111.69C264.83 1160.7 424.921 1207.35 558.221 1240.42C855.532 1313.86 969.622 1318.17 1134.68 1410.3C1283.14 1493.16 1333.98 1575.1 1476.82 1626.32C1603.58 1671.8 1707.61 1675.59 1750.08 1680.95C1921.93 1702.9 1970.03 1611.69 2137.96 1542.03C2328.11 1463.62 2509.5 1481.79 2598.23 1441.93C2808.25 1457.22 2960.5 1580.32 3094.84 1622.53C3108.53 1634.73 3123.03 1646 3138.23 1656.25C3444.3 1855.54 3379.35 2056.93 3582.56 2138.08C3765.52 2211.52 4006.12 2162.26 4165.95 2157.68C4303.17 2153.89 4411.77 2143.44 4508.74 2146.05C4619.56 2149.06 4723.19 2184.47 4838.33 2224.46C4886.81 2241.06 4924.97 2261.05 4958.82 2256.09C5165.04 2225.25 5199.02 2135.73 5398.84 1961.27C5474.77 1895.01 5543.25 1814.51 5630.29 1740.15C5774.04 1616.78 5998.3 1286.68 6437.28 1047.53C6460.54 1034.98 6485.67 1021.91 6512.68 1008.32C6716.94 909.264 7045.23 793.217 7503.15 799.228" stroke="#4A3AFF" stroke-width="7" stroke-miterlimit="10"/>
<path d="M92.1953 1162.79C267.184 1212.32 424.269 1259.76 557.831 1294.52C843.511 1368.75 960.345 1377.63 1124.62 1469.9C1269.55 1551.18 1322.74 1630.51 1460.35 1682.78C1583.06 1728.26 1683.56 1735.05 1726.95 1741.98C1894.49 1768.12 1946.37 1686.05 2111.3 1620.83C2295.83 1547.78 2468.33 1562.68 2562.04 1518.9C2763.68 1529.23 2914.89 1637.82 3052.63 1669.45C3066.46 1680.35 3081.09 1690.18 3096.41 1698.85C3406.66 1867.96 3359.75 2051.7 3555.38 2123.97C3741.87 2193.1 3982.86 2142.26 4147 2138.6C4285.27 2135.6 4396.22 2127.63 4494.76 2134.16C4607.41 2141.61 4712.74 2186.43 4825.39 2231.26C4874.4 2250.86 4912.56 2272.81 4946.28 2267.72C5152.24 2236.88 5182.3 2133.38 5377.54 1946.24C5450.47 1876.06 5517.12 1791.51 5604.67 1714.01C5741.63 1592.61 5971.64 1252.7 6417.54 1008.32C6440.98 995.34 6466.38 982.272 6493.73 969.116C6699.7 868.229 7032.03 748.653 7495.97 752.574" stroke="#4A3AFF" stroke-width="7" stroke-miterlimit="10"/>
<path d="M99.2539 1213.76C269.146 1262.63 423.748 1312.03 557.44 1348.62C831.881 1423.37 951.067 1437.22 1114.56 1529.36C1256.09 1609.2 1311.5 1687.09 1444.02 1738.45C1562.55 1783.93 1659.52 1793.73 1703.95 1802.22C1867.05 1833.2 1922.85 1759.49 2084.64 1698.85C2263.55 1631.81 2427.04 1642.79 2525.84 1595.09C2719.25 1600.32 2868.24 1694.67 3010.94 1715.58C3024.94 1725.14 3039.71 1733.49 3055.12 1740.54C3368.76 1879.98 3340.54 2044.64 3529.25 2108.94C3717.96 2173.23 3960.51 2122.01 4129.23 2118.74C4268.41 2116.52 4381.71 2110.9 4482.08 2121.35C4596.43 2133.24 4703.46 2186.69 4813.76 2237.66C4863.29 2260.27 4901.45 2283.92 4935.04 2278.96C5140.74 2247.98 5167.01 2130.76 5356.63 1930.69C5426.81 1856.72 5491.63 1768.12 5579.71 1687.35C5709.36 1568.3 5945.64 1218.33 6398.33 967.156C6421.86 954.088 6447.6 941.019 6475.31 926.775C6682.58 823.404 7019.22 700.301 7489.04 702.653" stroke="#4A3AFF" stroke-width="7" stroke-miterlimit="10"/>
<path d="M106.309 1264.59C271.888 1313.47 423.354 1364.17 557.176 1402.46C819.594 1477.74 941.786 1496.42 1104.49 1588.69C1242.5 1667.1 1300.52 1742.76 1427.55 1793.47C1542.16 1838.95 1635.6 1851.75 1680.95 1861.82C1839.73 1896.97 1899.19 1832.41 2058.11 1776.22C2231.27 1715.06 2385.74 1722.38 2489.37 1670.76C2674.43 1670.76 2821.71 1750.87 2968.86 1761.06C2983.13 1769.27 2998.08 1776.22 3013.56 1781.84C3331.91 1891.87 3321.45 2037.19 3503.11 2093.65C3696.39 2153.63 3938.16 2100.44 4111.45 2098.61C4251.55 2097.05 4367.21 2093.91 4468.88 2108.28C4585.06 2124.62 4693.53 2188.13 4801.61 2243.67C4851.66 2269.81 4889.69 2294.77 4923.28 2289.67C5128.84 2258.83 5151.32 2127.76 5335.72 1914.74C5403.02 1836.99 5466.41 1744.85 5554.49 1660.3C5677.07 1543.6 5919.37 1183.57 6378.99 926.122C6402.78 912.792 6428.69 899.027 6456.75 884.826C6665.85 780.279 7006.68 653.516 7482.51 653.124" stroke="#4A3AFF" stroke-width="7" stroke-miterlimit="10"/>
<path d="M113.367 1315.82C274.242 1364.7 422.832 1416.58 556.786 1456.83C807.704 1532.36 932.64 1556.15 1094.43 1648.67C1228.91 1725.38 1289.02 1799.09 1411.21 1849.53C1491.2 1880.9 1573.76 1905.3 1657.95 1922.45C1812.42 1961.66 1875.54 1906.25 2031.45 1854.63C2198.86 1799.35 2345.1 1802.35 2453.44 1747.34C2630.12 1742.5 2775.84 1808.1 2927.44 1807.71C2941.93 1814.54 2957.02 1820 2972.52 1824.05C3293.75 1904.55 3302.64 2030.14 3476.97 2078.88C3673.92 2133.9 3915.95 2083.06 4093.55 2078.88C4234.69 2075.61 4352.57 2077.57 4455.94 2095.74C4573.56 2116.52 4683.86 2189.7 4789.72 2250.21C4840.16 2278.96 4878.32 2306.14 4911.78 2301.04C5117.08 2270.07 5136.03 2125.4 5315.07 1899.32C5379.5 1817.91 5440.93 1721.46 5529.66 1633.77C5645.06 1519.56 5893.36 1149.33 6359.91 885.61C6383.83 872.542 6409.96 858.036 6438.32 843.53C6649.12 736.761 6994.13 606.601 7475.84 604.118" stroke="#4A3AFF" stroke-width="7" stroke-miterlimit="10"/>
<path d="M120.422 1366.92C277.245 1415.79 422.438 1468.72 556.391 1510.67C795.809 1586.2 923.359 1615.22 1084.49 1707.87C1215.18 1783.01 1277.78 1854.76 1394.74 1904.94C1472.7 1937.15 1553 1963.36 1634.95 1983.35C1785.37 2026.35 1851.88 1980.21 2004.79 1933.43C2166.45 1883.77 2303.28 1883.64 2417.23 1824.31C2585.69 1814.25 2729.7 1865.61 2885.61 1854.5C2900.37 1859.89 2915.6 1863.91 2931.09 1866.52C3255.98 1918.14 3283.95 2023.34 3450.83 2064.64C3651.57 2114.3 3893.6 2062.81 4075.77 2059.67C4217.96 2057.32 4338.06 2061.63 4443 2083.72C4562.71 2108.94 4673.92 2191.79 4777.95 2257.26C4828.53 2289.15 4866.95 2318.03 4900.27 2312.93C5105.45 2281.83 5120.87 2123.57 5294.29 1884.42C5356.11 1799.22 5415.83 1698.98 5504.7 1607.9C5613.43 1496.29 5867.48 1115.74 6341.09 845.621C6365.14 831.899 6391.67 817.524 6420.42 802.626C6632.91 694.028 6982.37 560.339 7469.7 555.634" stroke="#4A3AFF" stroke-width="7" stroke-miterlimit="10"/>
<path d="M127.35 1418.01C278.946 1466.76 422.047 1520.86 556.001 1565.16C783.526 1640.83 914.212 1675.07 1074.43 1767.85C1201.85 1841.56 1266.54 1911.61 1378.41 1961.13C1454.33 1993.58 1532.3 2021 1611.82 2043.2C1758.31 2089.86 1828.23 2053.27 1977.74 2011.06C2133.78 1967.28 2261.59 1963.49 2380.64 1900.11C2540.73 1885.08 2683.05 1922.06 2843.53 1900.11C2858.55 1904.11 2873.91 1906.69 2889.4 1907.82C3217.95 1930.82 3264.61 2014.72 3424.3 2049.08C3628.83 2093.26 3870.86 2041.24 4057.61 2039.41C4200.71 2037.85 4323.16 2044.51 4429.67 2070.52C4551.21 2100.18 4663.6 2192.71 4765.67 2263.14C4816.5 2298.3 4855.06 2328.49 4888.38 2323.65C5093.3 2292.55 5105.58 2120.57 5273.25 1868.35C5332.32 1779.48 5390.87 1675.59 5479.35 1580.85C5581.8 1471.99 5841.09 1081.64 6321.75 804.586C6345.93 790.603 6372.72 775.967 6401.86 760.807C6615.92 650.38 6969.3 513.031 7462.9 506.628" stroke="#4A3AFF" stroke-width="7" stroke-miterlimit="10"/>
<path d="M134.406 1469.11C281.298 1517.99 421.916 1572.87 555.608 1619.53C772.286 1694.93 904.933 1734.79 1064.37 1827.58C1188.39 1899.71 1255.3 1967.54 1361.94 2017.07C1435.85 2050.25 1511.6 2079.18 1588.81 2103.71C1731.39 2154.02 1804.45 2126.84 1951.47 2089.34C2101.76 2051.18 2220.68 2043.86 2344.83 1976.69C2496.69 1956.56 2637.31 1979.17 2802.24 1946.76C2817.58 1948.81 2833.03 1949.9 2848.5 1950.03C3180.44 1964.79 3246.31 2006.87 3398.56 2034.58C3606.87 2072.48 3849.03 2018.11 4040.1 2019.94C4183.85 2021.38 4309.05 2028.31 4417.13 2058.23C4540.5 2092.34 4653.8 2194.67 4754.17 2269.94C4805.27 2308.36 4844.08 2340.25 4877.27 2335.28C5082.06 2304.18 5091.21 2118.74 5252.87 1853.45C5309.32 1760.8 5366.17 1653.24 5454.91 1554.58C5550.31 1448.46 5815.73 1047.13 6302.67 764.335C6327.15 750.047 6354.12 735.193 6383.57 719.772C6599.2 607.123 6956.89 466.377 7456.37 457.491" stroke="#4A3AFF" stroke-width="7" stroke-miterlimit="10"/>
<path d="M141.465 1520.08C283.652 1568.82 421.526 1624.62 555.218 1673.5C760.657 1748.51 895.656 1793.99 1054.31 1887.04C1174.8 1957.61 1243.93 2023.47 1345.61 2072.74C1439.7 2118.48 1515.5 2144.61 1565.82 2164.22C1704.6 2217.93 1780.79 2200.29 1924.81 2167.75C2055.08 2137.83 2183.29 2099.55 2308.64 2053.14C2446.12 2004.78 2589.61 1956.69 2760.42 1993.15C2775.93 1995.31 2791.68 1994.96 2807.07 1992.11C3143.46 1958.91 3227.49 1998.64 3372.42 2019.94C3584.66 2051.04 3826.69 1997.46 4022.33 2000.34C4167.52 2002.43 4294.55 2011.97 4404.19 2045.69C4529.26 2084.89 4643.61 2196.5 4742.28 2276.6C4793.51 2318.29 4832.71 2351.75 4865.91 2346.65C5070.3 2315.42 5076.57 2116.39 5231.83 1838.03C5285.67 1741.59 5341.21 1630.64 5429.56 1528.18C5517.9 1425.72 5789.86 1013.81 6283.2 723.693C6307.77 709.448 6335.47 694.158 6364.88 678.346C6582.21 563.867 6943.95 419.592 7449.57 408.484" stroke="#4A3AFF" stroke-width="7" stroke-miterlimit="10"/>
<path d="M148.521 1571.18C286.003 1619.92 421.264 1675.72 554.956 1728C749.025 1802.62 886.507 1853.84 1044.25 1947.02C1161.86 2016.02 1232.7 2079.93 1329.14 2128.93C1419.18 2174.8 1492.37 2203.42 1542.81 2224.72C1677.94 2281.83 1757.01 2273.6 1898.15 2246.02C2036.81 2218.97 2128.81 2184.47 2272.44 2129.72C2401.81 2080.32 2539.56 2070.78 2718.73 2039.54C2735.2 2036.67 2751.01 2036.93 2765.78 2034.32C3106.34 1973.16 3208.67 1990.15 3346.28 2005.31C3562.31 2028.96 3804.47 1976.95 4004.42 1980.74C4150.66 1983.61 4280.04 1995.64 4391.25 2033.01C4518.15 2076.14 4633.28 2197.93 4730.38 2283.01C4781.74 2327.96 4821.86 2362.99 4854.4 2357.89C5058.54 2326.66 5062.07 2113.9 5211.44 1822.09C5262.8 1721.85 5317.17 1607.77 5404.99 1501.13C5487.71 1400.76 5764.37 979.049 6264.51 682.658C6289.34 668.153 6316.78 652.601 6346.97 636.397C6565.87 520.088 6931.93 372.285 7443.3 358.956" stroke="#4A3AFF" stroke-width="7" stroke-miterlimit="10"/>
<path d="M156.23 1622.14C289.008 1670.89 421.785 1727.73 555.216 1781.71C738.177 1855.8 877.88 1912.39 1034.83 2006.22C1148.4 2073.65 1222.11 2135.6 1313.46 2184.47C1399.32 2230.21 1469.37 2261.18 1520.46 2284.71C1652.07 2345.21 1734.01 2346.39 1872.27 2323.91C2005.05 2302.22 2089.08 2267.06 2236.89 2206.3C2358.56 2155.85 2493.82 2132.2 2677.56 2086.07C2693.9 2082.02 2710.1 2080.32 2725.13 2076.53C3070.14 1987.53 3190.9 2005.57 3320.8 1990.67C3542.09 1966.37 3764.73 1956.59 3987.3 1961.4C4134.58 1964.92 4266.18 1979.43 4379.36 2020.99C4508.08 2068.56 4623.87 2200.15 4719.14 2290.06C4770.5 2338.29 4810.62 2374.75 4843.56 2369.78C5047.56 2338.42 5048.21 2112.07 5191.44 1807.84C5240.32 1703.95 5293.77 1586.73 5380.81 1475.78C5457.26 1378.42 5739.02 945.855 6246.08 643.323C6271.04 628.555 6298.36 612.743 6329.33 596.277C6549.93 477.877 6920.03 326.546 7437.42 311.256" stroke="#4A3AFF" stroke-width="7" stroke-miterlimit="10"/>
<path d="M162.635 1658.86C290.707 1707.61 421.002 1764.85 554.694 1821.56C726.677 1894.88 868.341 1958 1025.16 2051.44C1135.33 2116.78 1211.26 2177.42 1297.51 2225.9C1379.19 2271.77 1446.24 2305.09 1497.73 2330.45C1626.19 2394.22 1710.61 2404.81 1846.01 2387.42C1973.03 2371.09 2049.48 2335.93 2201.08 2267.46C2315.3 2215.84 2448.6 2178.59 2636.27 2117.17C2652.6 2111.81 2668.81 2108.28 2684.23 2103.19C3033.94 1986.62 3172.6 1975.64 3295.05 1960.74C3518.9 1933.2 3744.43 1921.71 3969.92 1926.37C4118.12 1930.69 4252.07 1947.67 4366.29 1993.15C4496.98 2045.43 4613.29 2186.43 4707.64 2280.66C4758.87 2332.15 4799.12 2370.3 4832.45 2365.21C5036.19 2333.71 5034.36 2093.78 5171.06 1776.35C5217.45 1668.53 5270.38 1548.44 5356.24 1433.17C5426.68 1338.69 5713.41 895.411 6227.39 586.606C6252.49 571.577 6280.58 555.503 6311.43 538.776C6533.59 418.416 6908.01 263.557 7431.28 246.045" stroke="#4A3AFF" stroke-width="7" stroke-miterlimit="10"/>
<path d="M169.301 1678.6C292.669 1727.34 420.741 1784.58 553.388 1844.3C714.393 1916.83 858.671 1985.7 1013.67 2079.53C1120.44 2143.7 1198.46 2202.11 1279.61 2250.21C1357.24 2296.21 1421.28 2331.62 1473.29 2359.59C1598.62 2426.63 1685.52 2446.49 1817.91 2434.34C1939.19 2423.23 2008.58 2388.99 2163.44 2312.54C2270.34 2260.27 2402.08 2209.04 2593.01 2132.2C2609.48 2125.67 2625.81 2120.31 2641.36 2113.9C2996.31 1969.5 3151.82 1929.12 3267.48 1914.61C3492.65 1886.51 3737.17 1868.48 3950.58 1875.41C4099.82 1880.24 4236 1899.84 4351.92 1949.24C4484.3 2005.7 4601.14 2156.64 4694.31 2256.48C4745.54 2311.37 4786.71 2350.83 4819.51 2345.74C5023.12 2314.37 5018.68 2060.58 5148.97 1730.22C5192.88 1618.61 5245.55 1495.77 5329.84 1375.93C5394.4 1284.46 5685.96 830.462 6206.88 515.384C6232.23 500.224 6260.46 483.758 6291.69 466.639C6515.56 344.45 6894.03 186.061 7423.31 166.067" stroke="#4A3AFF" stroke-width="7" stroke-miterlimit="10"/>
<path d="M176.619 1697.42C295.413 1746.03 421.395 1803.27 553.388 1866.26C707.697 1938.56 858.106 2018.91 1003.99 2106.98C1107.37 2169.71 1186.96 2226.29 1263.67 2273.86C1336.98 2320.25 1398.14 2357.63 1450.68 2387.82C1573 2458.25 1662.26 2487.27 1791.64 2480.47C1907.3 2474.46 1970.03 2441.92 2127.64 2356.84C2227.74 2302.87 2358.04 2238.58 2551.71 2146.44C2568.18 2138.6 2584.65 2131.42 2600.46 2123.84C2960.5 1951.59 3131.7 1874.88 3241.74 1867.7C3471.61 1853.06 3715.21 1815.42 3933.2 1823.66C4083.49 1829.01 4221.88 1851.49 4339.37 1904.68C4473.59 1965.58 4590.81 2126.84 4682.81 2231.39C4733.78 2289.54 4775.6 2330.58 4808.4 2325.61C5011.75 2293.99 5004.43 2026.48 5128.59 1683.17C5172.43 1554.57 5231.76 1431.78 5305.27 1317.52C5364.08 1228.78 5660.35 764.205 6188.06 442.854C6213.54 427.434 6242.03 410.706 6273.66 393.325C6499.09 269.176 6881.87 107.259 7417.03 85.4351" stroke="#4A3AFF" stroke-width="7" stroke-miterlimit="10"/>
<path d="M183.676 1715.45C463.638 1834.81 734.452 1974.59 993.931 2133.64C1411.34 2389.65 1525.43 2527.91 1764.98 2525.69C1939.45 2523.99 1980.61 2449.76 2509.89 2159.77C2907.96 1941.66 3107 1833.07 3215.6 1820C3605.83 1774.39 4032.39 1717.93 4326.43 1859.2C4538.41 1961 4705.42 2317.64 4796.9 2303.53C5068.08 2261.45 4961.04 1774.26 5280.44 1258.06C5333.63 1172.07 5634.47 697.034 6169.11 369.41C6376.64 242.255 6793.27 30.8094 7410.63 3.49658" stroke="#4A3AFF" stroke-width="7" stroke-miterlimit="10"/>
</svg>
