<svg width="322" height="313" viewBox="-40 -40 322 313" fill="none" xmlns="http://www.w3.org/2000/svg">
<path d="M9.00146 65.3169C17.9008 50.0237 27.401 34.7078 41.3225 23.4391C52.6592 14.2563 67.0568 8.14581 81.6245 9.09809C96.1922 10.0504 110.579 19.0177 115.635 32.7125C119.285 42.5981 117.834 53.8895 113.254 63.3784C108.674 72.8672 101.203 80.7009 92.916 87.2082C69.3016 105.755 37.6266 115.55 21.5285 140.899C11.0987 157.326 9.81774 180.611 22.4922 195.372C32.3438 206.845 48.612 211.198 63.6785 209.928C81.9193 208.386 98.743 199.725 114.433 190.293C130.123 180.861 145.45 170.386 162.795 164.536C180.141 158.686 200.331 158.074 215.795 167.869C222.529 172.132 228.152 178.344 230.975 185.792C233.798 193.241 233.616 201.947 229.773 208.931C225.238 217.161 216.135 222.195 206.827 223.498C197.52 224.802 188.042 222.784 179.2 219.61C148.976 208.772 125.214 185.124 104.683 160.432" stroke="#231F20" stroke-width="18" stroke-miterlimit="10" stroke-linecap="round"/>
</svg>
