<svg width="380" height="445" viewBox="-40 -40 380 445" fill="none" xmlns="http://www.w3.org/2000/svg">
<path d="M9.00244 240.73C17.7884 237.59 26.597 234.359 34.5101 229.416C57.603 215.551 70.2322 186.779 61.2875 161.226C56.6167 145.785 47.0939 131.535 45.6315 115.176C43.8969 100.937 51.0391 85.213 64.4051 80.0095C99.1181 65.0903 129.262 134.278 157.389 110.709C175.856 94.4638 174.95 66.7795 180.244 44.8656C182.454 36.2384 186.23 27.8719 192.544 21.4666C203.246 10.0279 222.915 5.6292 238.22 11.785C253.57 17.6235 266.29 31.1029 268.126 47.3711C270.552 78.2183 220.534 74.3638 218.834 103.635C219.786 128.179 249.205 124.79 267.548 132.351C272.729 134.312 277.74 137.067 281.753 140.842C299.393 157.485 289.462 182.426 268.602 190.679C227.643 207.298 187.443 170.613 145.893 179.591C105.716 188.275 85.7521 230.845 113.062 263.449C128.56 282.098 157.593 283.595 177.727 272.825C192.204 265.716 204.142 253.79 219.185 247.691C243.593 236.91 272.4 254.425 264.94 282.245C258.739 301.688 235.794 310.848 222.904 326.629C215.626 334.995 210.785 345.153 206.386 355.243" stroke="#231F20" stroke-width="18" stroke-miterlimit="10" stroke-linecap="round"/>
</svg>
