<svg width="7067" height="4897" viewBox="-500 -500 7067 4897" fill="none" xmlns="http://www.w3.org/2000/svg">
<path d="M3.71582 2.4707C1303.58 202.45 3106.12 2475.39 2939.77 3265.76C2830.69 3783.89 1552.73 3772.26 1203.59 3865.7C727.458 3992.96 1629 3516.56 1812.62 2965.8C2030.78 2311.32 1699.63 590.773 2750.15 893.286C3666.97 1157.44 3865.49 2012.99 4522.7 1993.17C5117.09 1974.99 5580.13 1256.88 5877.1 656.947" stroke="#4A3AFF" stroke-width="5" stroke-miterlimit="10"/>
<path d="M3.62598 54.9199C1248.95 277.897 2983.04 2479.12 2844.42 3236.4C2753.52 3732.53 1543.19 3715.99 1220.13 3799.98C772.273 3916.24 1635.36 3458.38 1817.44 2929.98C2035.59 2296.41 1734.54 649.858 2748.7 941.554C3653.42 1201.07 3836.04 2076.53 4499.15 2077.8C5094.64 2076.71 5575.95 1374.15 5886.01 787.025" stroke="#4A3AFF" stroke-width="5" stroke-miterlimit="10"/>
<path d="M3.51758 107.095C1194.3 353.069 2859.95 2482.39 2749.14 3206.77C2676.42 3680.9 1533.63 3659.45 1236.66 3733.99C816.978 3838.88 1641.71 3399.93 1822.24 2893.8C2040.39 2281.14 1769.51 708.759 2747.23 989.548C3639.86 1244.52 3806.57 2142.15 4475.68 2162.15C5072.17 2180.33 5571.75 1491.22 5894.99 916.828" stroke="#4A3AFF" stroke-width="5" stroke-miterlimit="10"/>
<path d="M3.51758 159.636C1139.76 428.698 2736.96 2485.76 2653.88 3177.5C2599.34 3629.36 1524.09 3603.27 1253.2 3668.36C861.518 3761.26 1648.16 3341.48 1827.05 2857.72C2045.85 2265.87 1804.51 767.663 2745.87 1037.45C3626.32 1287.97 3776.94 2206.88 4452.05 2246.42C5049.53 2281.78 5567.48 1608.39 5903.9 1046.54" stroke="#4A3AFF" stroke-width="5" stroke-miterlimit="10"/>
<path d="M3.43262 211.994C1085.68 504.054 2613.89 2488.66 2558.62 3148.05C2522.26 3577.55 1514.64 3546.83 1269.85 3602C906.247 3683.81 1654.71 3283.13 1831.88 2821.63C2051.04 2250.69 1839.51 826.657 2744.42 1085.45C3612.78 1331.42 3747.4 2270.6 4428.7 2330.77C5027 2383.58 5563.49 1725.47 5912.9 1176.35" stroke="#4A3AFF" stroke-width="5" stroke-miterlimit="10"/>
<path d="M3.34277 264.353C1031.23 579.501 2490.81 2491.39 2463.27 3118.6C2445.09 3525.46 1505.19 3490.38 1286.39 3536.1C951.152 3606.09 1661.44 3224.68 1836.7 2785.54C2056.31 2235.42 1874.51 885.742 2743.06 1133.53C3599.15 1375.05 3717.77 2334.77 4405.15 2415.22C5004.45 2485.39 5559.58 1842.55 5921.9 1306.24" stroke="#4A3AFF" stroke-width="5" stroke-miterlimit="10"/>
<path d="M3.34277 316.803C976.786 654.949 2367.64 2492.76 2368 3089.24C2368 3473.11 1495.37 3433.75 1302.93 3470.11C995.875 3528.01 1668.17 3166.32 1841.51 2749.55C2061.67 2220.15 1909.42 944.555 2741.42 1181.62C3585.42 1418.51 3687.87 2398.77 4381.52 2499.66C4981.46 2586.93 5554.94 1959.99 5930.72 1436.14" stroke="#4A3AFF" stroke-width="5" stroke-miterlimit="10"/>
<path d="M3.25195 369.159C922.246 730.303 2244.29 2494.12 2272.74 3059.79C2290.92 3420.48 1486.46 3377.03 1319.57 3404.2C1040.6 3449.65 1675.17 3107.96 1846.79 2713.37C2067.67 2204.33 1944.41 1005.18 2740.6 1229.52C3571.97 1463.77 3658.69 2462.49 4358.61 2583.93C4959.73 2688.28 5551.4 2077.07 5940.26 1565.85" stroke="#4A3AFF" stroke-width="5" stroke-miterlimit="10"/>
<path d="M3.16699 421.52C867.804 805.752 2120.58 2494.94 2177.39 3030.34C2213.21 3367.48 1477.47 3320.22 1336.12 3338.21C1085.51 3370.21 1682.17 3049.61 1851.25 2677.46C2072.77 2189.52 1978.51 1064.45 2738.79 1277.61C3557.98 1507.5 3628.79 2526.12 4334.71 2668.37C4936.65 2789.63 5546.86 2194.33 5948.82 1695.75" stroke="#4A3AFF" stroke-width="5" stroke-miterlimit="10"/>
<path d="M3.16699 473.875C813.355 881.105 1996.5 2495.03 2082.13 3000.88C2135.22 3314.21 1468.56 3263.13 1352.66 3272.31C1130.5 3289.85 1688.99 2991.25 1856.06 2641.37C2078.59 2174.24 2013.87 1123.35 2737.79 1325.79C3544.8 1551.31 3599.61 2589.74 4311.62 2752.91C4914.47 2890.99 5543.13 2311.59 5958.27 1825.73" stroke="#4A3AFF" stroke-width="5" stroke-miterlimit="10"/>
<path d="M3.07617 526.234C758.906 956.552 1871.7 2494.57 1986.87 2971.43C2056.68 3260.67 1460.38 3205.86 1368.75 3206.41C1175.68 3207.5 1695.99 2932.98 1860.43 2605.29C2084.04 2158.88 2048.32 1182.53 2735.52 1373.78C3530.25 1595.03 3569.07 2653.1 4287.26 2837.26C4891.02 2991.79 5538.04 2428.76 5966.27 1955.54" stroke="#4A3AFF" stroke-width="5" stroke-miterlimit="10"/>
<path d="M2.98535 578.684C704.457 1031.91 1746.08 2493.57 1891.61 2942.07C1977.51 3206.86 1450.2 3163.23 1385.84 3140.42C1223.31 3158.59 1703.99 2874.72 1865.7 2569.29C2090.58 2143.61 2083.86 1241.52 2734.52 1421.87C3517.16 1638.66 3539.98 2716.37 4264.17 2921.71C4868.93 3093.06 5534.31 2546.02 5975.72 2085.43" stroke="#4A3AFF" stroke-width="5" stroke-miterlimit="10"/>
<path d="M2.98535 631.039C649.917 1107.35 1619.18 2492.21 1796.25 2912.62C1897.51 3152.96 1440.93 3107.87 1402.38 3074.51C1268.4 3082.87 1712.08 2816.54 1870.52 2533.2C2096.95 2128.34 2118.76 1300.51 2733.06 1469.68C3503.53 1682.11 3510.44 2779.36 4240.72 3005.88C4846.48 3193.77 5530.13 2663.01 5984.72 2215.05" stroke="#4A3AFF" stroke-width="5" stroke-miterlimit="10"/>
<path d="M2.90039 683.4C595.475 1182.71 1490.93 2490.94 1700.99 2883.17C1816.62 3099.15 1431.57 3052.52 1419.21 3008.52C1313.67 3006.97 1720.36 2758.36 1875.61 2497.21C2103.86 2113.07 2154.04 1359.42 2731.98 1517.95C3490.26 1725.93 3481.26 2842.63 4217.55 3090.51C4824.3 3294.76 5526.5 2780.45 5993.91 2345.13" stroke="#4A3AFF" stroke-width="5" stroke-miterlimit="10"/>
<path d="M2.79297 735.755C541.009 1258.16 1361.1 2490.12 1605.72 2853.71C1734.79 3045.6 1422.28 2997.15 1435.46 2942.61C1358.47 2931.07 1728.34 2700.37 1880.14 2460.85C2110.57 2097.25 2188.75 1418.05 2730.23 1565.67C3476.43 1769.19 3451.52 2905.25 4193.72 3174.59C4801.56 3395.29 5521.85 2897.35 6002.62 2474.66" stroke="#4A3AFF" stroke-width="5" stroke-miterlimit="10"/>
<path d="M2.79297 788.116C486.56 1333.51 1229.94 2490.57 1510.36 2824.27C1652.07 2992.7 1412.92 2941.8 1452.1 2876.72C1403.56 2855.26 1736.88 2642.47 1884.96 2425.13C2117.93 2083.16 2223.74 1477.13 2728.78 1614.03C3462.88 1812.92 3422.16 2968.43 4170.26 3259.31C4779.29 3496.2 5517.67 3014.79 6011.62 2604.83" stroke="#4A3AFF" stroke-width="5" stroke-miterlimit="10"/>
<path d="M2.70215 840.473C432.112 1408.96 1096.77 2492.85 1415.1 2794.81C1568.81 2940.71 1403.65 2886.44 1468.64 2810.72C1448.64 2779.36 1745.7 2584.84 1889.78 2389.04C2125.66 2068.53 2258.74 1535.95 2727.42 1661.84C3449.34 1856.09 3392.89 3030.79 4146.72 3343.48C4756.93 3596.55 5513.49 3131.78 6020.52 2734.46" stroke="#4A3AFF" stroke-width="5" stroke-miterlimit="10"/>
<path d="M2.6123 892.92C377.573 1484.31 963.148 2497.57 1319.84 2765.45C1485.37 2889.71 1394.28 2831.08 1485.18 2744.82C1493.73 2703.55 1754.88 2527.39 1894.23 2352.95C2133.66 2054.34 2293.46 1594.76 2725.6 1710.11C3435.43 1899.63 3363.35 3093.78 4122.91 3428.11C4734.3 3697.26 5509.04 3249.22 6029.16 2864.53" stroke="#4A3AFF" stroke-width="5" stroke-miterlimit="10"/>
<path d="M2.6123 945.281C323.124 1559.76 829.344 2504.75 1224.58 2736C1402.01 2839.81 1398.1 2789.63 1501.73 2678.92C1544.91 2632.74 1764.34 2469.85 1899.5 2316.96C2142.93 2040.8 2328.91 1653.39 2724.6 1758.2C3422.34 1942.9 3334.54 3156.32 4099.73 3512.56C4712.48 3797.8 5505.22 3366.39 6038.52 2994.43" stroke="#4A3AFF" stroke-width="5" stroke-miterlimit="10"/>
<path d="M2.52734 997.908C268.681 1635.39 696.273 2514.66 1129.68 2706.82C1319.75 2791.17 1382.02 2728 1518.82 2613.19C1587.45 2555.56 1774.52 2413.85 1904.78 2281.14C2153.03 2028.35 2364.37 1712.38 2723.61 1806.46C3409.35 1986.17 3305.91 3219.13 4076.74 3597.18C4690.85 3898.42 5501.5 3483.92 6047.89 3124.5" stroke="#4A3AFF" stroke-width="5" stroke-miterlimit="10"/>
<path d="M2.43652 1050C214.232 1710.57 564.468 2525.85 1033.96 2677.1C1237.31 2742.64 1368.57 2668.01 1534.91 2547.02C1630.17 2477.67 1783.98 2357.41 1909.15 2244.87C2162.94 2016.63 2399.19 1770.2 2721.7 1854.01C3395.81 2027.62 3277 3280.04 4052.74 3681.09C4668.67 3997.51 5496.86 3600.55 6056.44 3253.86" stroke="#4A3AFF" stroke-width="5" stroke-miterlimit="10"/>
<path d="M2.43652 1102.36C159.784 1785.92 434.3 2538.57 938.702 2647.65C1590.18 2789 2092.49 1741.92 2720.33 1902.27C3382.26 2071.44 3247.55 3343.67 4029.29 3765.71C4646.22 4098.95 5492.77 3718.08 6065.44 3383.93" stroke="#4A3AFF" stroke-width="5" stroke-miterlimit="10"/>
</svg>
