<svg width="438" height="358" viewBox="-40 -40 438 358" fill="none" xmlns="http://www.w3.org/2000/svg">
<path d="M9.00189 41.1926C86.0463 24.3122 163.862 12.8508 242.663 9.39311C329.231 5.59531 348.696 29.8899 348.696 59.2294C348.696 98.5338 306.274 104.916 293.826 106.356C238.423 112.761 184.03 109.53 130.452 120.788C116.553 123.713 64.994 138.541 75.7072 181.281C88.3023 231.548 197.826 196.801 230.034 197.016C237.074 197.061 244.341 197.152 250.803 199.952C257.265 202.752 262.786 208.988 262.48 216.016C262.026 226.73 249.613 233.588 238.888 233.702C224.672 233.849 186.739 230.074 177.987 244.143C169.235 258.212 183.077 267.803 187.929 267.859C196.103 267.961 204.288 268.052 212.462 268.154" stroke="#231F20" stroke-width="18" stroke-miterlimit="10" stroke-linecap="round"/>
</svg>
