<svg width="496" height="304" viewBox="-40 -40 496 304" fill="none" xmlns="http://www.w3.org/2000/svg">
<path d="M9.00037 207.048C11.9706 162.608 28.3182 119.143 55.3676 83.7498C72.9849 60.7023 118.479 11.6709 145.2 52.1431C157.67 71.0301 157.727 139.697 162.092 155.647C170.243 185.406 204.661 183.207 228.139 168.866C259.905 149.469 267.602 115.912 276.513 82.3668C280.56 67.1302 282.771 50.692 277.67 35.7615C272.568 20.8423 258.408 8.09986 242.673 9.05214C222.55 10.2538 209.218 34.3444 214.683 53.7415C220.147 73.1387 239.442 86.2439 259.281 89.781C275.901 92.7399 293.62 90.2798 309.231 96.7191C339.047 109.019 347.515 144.776 361.017 170.737C371.039 189.998 385.913 208.76 406.954 214.122" stroke="#231F20" stroke-width="18" stroke-miterlimit="10" stroke-linecap="round"/>
</svg>
