<svg width="7541" height="4640" viewBox="-500 -500 7541 4640" fill="none" xmlns="http://www.w3.org/2000/svg">
<path d="M83.6309 486.181C325.149 628.595 538.989 813.417 714.876 1031.77C1129.08 1550.68 1072.61 1962.2 1310.28 2026.58C1677.54 2126.02 1914.7 1170.66 2686.84 1019.69C3253.18 908.883 3829.45 1285.36 3962.83 1372.59C4483.2 1712.48 4552.2 2089.07 4925.3 2099.08C5198.24 2106.69 5278.85 1908.52 5705.65 1824.58C6002.78 1766.15 6262.86 1803.27 6438.15 1844.52" stroke="#4A3AFF" stroke-width="5" stroke-miterlimit="10"/>
<path d="M83.873 531.183C325.413 673.644 539.284 858.492 715.221 1076.86C1129.43 1595.86 1072.96 2007.29 1310.53 2071.68C1677.89 2171.11 1915.04 1215.75 2687.09 1064.78C3253.53 954.069 3829.8 1330.55 3963.18 1417.68C4483.55 1757.57 4552.44 2134.16 4925.65 2144.17C5198.58 2151.78 5279.1 1953.62 5706 1869.67C6003.23 1811.24 6263.2 1848.36 6438.49 1889.61" stroke="#4A3AFF" stroke-width="5" stroke-miterlimit="10"/>
<path d="M84.1133 576.185C325.675 718.615 539.552 903.468 715.461 1121.86C1129.67 1640.86 1073.2 2052.29 1310.87 2116.67C1677.84 2216.14 1915.38 1260.74 2687.43 1109.78C3253.77 999.071 3830.04 1375.55 3963.42 1462.68C4483.79 1802.67 4552.78 2179.16 4925.89 2189.17C5198.82 2196.79 5279.42 1998.52 5706.23 1914.58C6003.46 1856.14 6263.44 1893.27 6438.72 1934.52" stroke="#4A3AFF" stroke-width="5" stroke-miterlimit="10"/>
<path d="M84.541 621.172C326.058 763.672 539.899 948.556 715.801 1166.95C1130.01 1685.95 1073.54 2097.38 1311.11 2161.77C1678.47 2261.21 1915.62 1305.84 2687.67 1154.88C3254.11 1044.16 3830.38 1420.64 3963.76 1507.77C4484.13 1847.76 4553.02 2224.26 4926.23 2234.26C5199.16 2241.88 5279.67 2043.61 5706.57 1959.67C6003.8 1901.23 6263.78 1938.36 6439.06 1979.61" stroke="#4A3AFF" stroke-width="5" stroke-miterlimit="10"/>
<path d="M84.6816 666.18C326.222 808.641 540.093 993.489 716.03 1211.85C1130.34 1730.85 1073.77 2142.38 1311.44 2206.67C1678.7 2306.11 1915.95 1350.74 2688 1199.77C3254.43 1089.06 3830.61 1465.54 3964.08 1552.67C4484.36 1892.67 4553.35 2269.15 4926.46 2279.17C5199.39 2286.78 5279.99 2088.51 5706.8 2004.57C6004.03 1946.14 6264.01 1983.36 6439.29 2024.51" stroke="#4A3AFF" stroke-width="5" stroke-miterlimit="10"/>
<path d="M85.0215 711.174C326.542 853.662 540.409 1038.51 716.37 1256.85C1130.58 1775.85 1074.11 2187.38 1311.68 2251.67C1678.75 2351.13 1916.19 1395.74 2688.31 1244.38C3254.65 1133.68 3830.92 1510.15 3964.3 1597.29C4484.67 1937.28 4553.56 2313.77 4926.77 2323.78C5199.7 2331.39 5280.21 2133.13 5707.11 2049.18C6004.34 1990.75 6264.32 2027.97 6439.7 2069.11" stroke="#4A3AFF" stroke-width="5" stroke-miterlimit="10"/>
<path d="M85.4512 756.256C326.967 898.765 540.784 1083.69 716.622 1302.14C1130.93 1821.14 1074.37 2232.67 1312.03 2296.95C1679.3 2396.49 1916.55 1441.12 2688.6 1290.15C3255.03 1179.34 3831.2 1555.83 3964.67 1642.95C4484.96 1982.95 4553.94 2359.44 4927.05 2369.45C5199.98 2377.06 5280.59 2178.79 5707.39 2094.85C6004.63 2036.52 6264.61 2073.64 6439.89 2114.79" stroke="#4A3AFF" stroke-width="5" stroke-miterlimit="10"/>
<path d="M85.5684 800.871C327.13 943.301 541.007 1128.15 716.917 1346.54C1131.12 1865.45 1074.65 2276.98 1312.23 2341.36C1679.59 2440.8 1916.74 1485.44 2688.88 1334.46C3255.22 1223.66 3831.49 1600.14 3964.87 1687.37C4485.24 2027.26 4554.13 2403.76 4927.34 2413.86C5200.28 2421.47 5280.88 2223.2 5707.69 2139.36C6004.82 2080.93 6264.8 2118.06 6440.19 2159.3" stroke="#4A3AFF" stroke-width="5" stroke-miterlimit="10"/>
<path d="M85.832 846.248C327.404 988.699 541.309 1173.55 717.276 1391.91C1131.48 1910.82 1074.92 2322.36 1312.59 2386.73C1679.66 2486.2 1917.1 1530.81 2689.13 1379.55C3255.55 1268.74 3831.73 1645.23 3965.21 1732.45C4485.48 2072.35 4554.48 2448.93 4927.59 2458.95C5200.52 2466.56 5281.13 2268.39 5707.94 2184.45C6005.16 2126.01 6265.14 2163.14 6440.43 2204.39" stroke="#4A3AFF" stroke-width="5" stroke-miterlimit="10"/>
<path d="M86.3594 891.228C327.875 1033.82 541.692 1218.81 717.546 1437.3C1131.76 1956.31 1075.28 2367.73 1312.95 2432.11C1680.21 2531.56 1917.37 1576.19 2689.51 1425.22C3255.85 1314.42 3832.12 1690.9 3965.5 1778.12C4485.87 2118.02 4554.77 2494.61 4927.97 2504.61C5200.91 2512.23 5281.52 2314.05 5708.32 2230.11C6005.45 2171.69 6265.43 2208.82 6440.82 2250.05" stroke="#4A3AFF" stroke-width="5" stroke-miterlimit="10"/>
<path d="M86.4902 936.05C328.01 1078.54 541.877 1263.38 717.838 1481.72C1132.05 2000.73 1075.58 2412.16 1313.15 2476.54C1680.41 2575.99 1917.66 1620.61 2689.71 1469.65C3256.15 1358.94 3832.32 1735.42 3965.79 1822.55C4486.07 2162.45 4555.06 2539.03 4928.27 2549.04C5201.1 2556.66 5281.71 2358.48 5708.62 2274.54C6005.84 2216.1 6265.82 2253.23 6441.11 2294.48" stroke="#4A3AFF" stroke-width="5" stroke-miterlimit="10"/>
<path d="M86.7363 981.239C328.276 1123.7 542.148 1308.55 718.084 1526.91C1132.3 2045.92 1075.82 2457.35 1313.49 2521.73C1680.75 2621.17 1917.9 1665.8 2690.05 1514.83C3256.39 1404.12 3832.66 1780.6 3966.04 1867.74C4486.42 2207.72 4555.31 2584.22 4928.51 2594.22C5201.44 2601.84 5282.05 2403.57 5708.86 2319.63C6005.99 2261.2 6265.96 2298.33 6441.35 2339.57" stroke="#4A3AFF" stroke-width="5" stroke-miterlimit="10"/>
<path d="M87.2676 1026.22C328.768 1168.73 542.63 1353.57 718.616 1571.89C1132.83 2090.9 1076.35 2502.33 1313.93 2566.71C1680.99 2666.08 1918.41 1710.4 2690.3 1559.83C3256.73 1449.12 3832.91 1825.61 3966.38 1912.73C4486.66 2252.73 4555.65 2629.21 4928.85 2639.22C5201.69 2646.84 5282.29 2448.57 5709.2 2364.62C6006.42 2306.19 6266.41 2343.41 6441.69 2384.56" stroke="#4A3AFF" stroke-width="5" stroke-miterlimit="10"/>
<path d="M87.3105 1071.24C328.85 1213.7 542.722 1398.54 718.659 1616.91C1132.87 2135.91 1076.4 2547.44 1314.07 2611.72C1681.33 2711.17 1918.48 1755.8 2690.63 1604.83C3256.97 1494.12 3833.24 1870.6 3966.52 1957.74C4486.9 2297.73 4555.79 2674.22 4928.99 2684.23C5201.92 2691.84 5282.52 2493.57 5709.33 2409.63C6006.46 2351.21 6266.45 2388.43 6441.83 2429.57" stroke="#4A3AFF" stroke-width="5" stroke-miterlimit="10"/>
<path d="M87.6445 1116.23C329.165 1258.72 543.031 1443.56 718.993 1661.9C1133.21 2180.91 1076.74 2592.43 1314.3 2656.72C1681.47 2756.18 1918.81 1800.79 2690.87 1649.93C3257.31 1539.21 3833.48 1915.7 3966.96 2002.82C4487.24 2342.82 4556.22 2719.31 4929.43 2729.31C5202.26 2736.93 5282.87 2538.66 5709.77 2454.72C6007 2396.38 6266.98 2433.51 6442.26 2474.66" stroke="#4A3AFF" stroke-width="5" stroke-miterlimit="10"/>
<path d="M88.1836 1161.3C329.764 1303.71 543.645 1488.56 719.532 1706.98C1133.74 2225.89 1077.27 2637.41 1314.93 2701.69C1681.91 2801.26 1919.33 1845.58 2691.21 1694.92C3257.54 1584.12 3833.82 1960.59 3967.19 2047.73C4487.57 2387.71 4556.46 2764.21 4929.66 2774.21C5202.6 2781.83 5283.2 2583.56 5710.01 2499.62C6007.15 2441.29 6267.12 2478.42 6442.5 2519.56" stroke="#4A3AFF" stroke-width="5" stroke-miterlimit="10"/>
<path d="M88.2344 1206.41C329.796 1348.84 543.673 1533.7 719.583 1752.09C1133.79 2271 1077.32 2682.52 1314.89 2746.91C1682.16 2846.35 1919.4 1890.98 2691.45 1740.01C3257.88 1629.2 3834.06 2005.69 3967.54 2092.91C4487.81 2432.81 4556.81 2809.39 4930.01 2819.4C5202.94 2827.01 5283.46 2628.85 5710.36 2544.9C6007.59 2486.47 6267.57 2523.59 6442.85 2564.84" stroke="#4A3AFF" stroke-width="5" stroke-miterlimit="10"/>
<path d="M88.4629 1251.32C330.025 1393.75 543.902 1578.6 719.811 1796.99C1134.02 2315.91 1077.55 2727.43 1315.22 2791.81C1682.38 2891.26 1919.63 1935.89 2691.79 1785.11C3258.13 1674.3 3834.4 2050.78 3967.78 2138.01C4488.15 2477.9 4557.05 2854.49 4930.25 2864.5C5203.19 2872.11 5283.8 2673.94 5710.6 2590C6007.73 2531.57 6267.71 2568.7 6443.1 2609.94" stroke="#4A3AFF" stroke-width="5" stroke-miterlimit="10"/>
<path d="M89.0859 1296.29C330.626 1438.75 544.497 1623.6 720.434 1841.97C1134.65 2360.97 1078.17 2772.4 1315.75 2836.79C1682.73 2936.45 1920.25 1980.76 2692.02 1829.92C3258.45 1719.2 3834.72 2095.68 3968.1 2182.81C4488.38 2522.71 4557.37 2899.3 4930.57 2909.3C5203.51 2916.92 5284.02 2718.75 5710.93 2634.8C6008.15 2576.37 6268.13 2613.5 6443.42 2654.74" stroke="#4A3AFF" stroke-width="5" stroke-miterlimit="10"/>
<path d="M89.0645 1341.6C330.627 1484.03 544.503 1668.88 720.413 1887.27C1134.63 2406.28 1078.15 2817.71 1315.82 2882.08C1683.08 2981.53 1920.23 2026.16 2692.38 1875.19C3258.7 1764.2 3834.97 2140.67 3968.35 2227.81C4488.72 2567.8 4557.61 2944.29 4930.82 2954.3C5203.75 2961.91 5284.35 2763.64 5711.16 2679.7C6008.29 2621.27 6268.27 2658.4 6443.65 2699.64" stroke="#4A3AFF" stroke-width="5" stroke-miterlimit="10"/>
<path d="M89.3711 1386.31C330.911 1528.77 544.782 1713.62 720.719 1931.98C1134.93 2450.99 1078.46 2862.42 1316.03 2926.8C1683.29 3026.25 1920.54 2070.88 2692.62 1920.3C3259.06 1809.58 3835.33 2186.06 3968.71 2273.19C4488.99 2613.19 4557.97 2989.68 4931.18 2999.68C5204.11 3007.3 5284.62 2809.03 5711.52 2725.09C6008.75 2666.65 6268.73 2703.78 6444.01 2745.03" stroke="#4A3AFF" stroke-width="5" stroke-miterlimit="10"/>
<path d="M89.9961 1431.28C331.536 1573.74 545.407 1758.59 721.344 1976.96C1135.56 2495.96 1079.09 2907.49 1316.75 2971.77C1683.66 3071.63 1921.17 2115.94 2692.93 1964.91C3259.27 1854.2 3835.54 2230.68 3968.92 2317.81C4489.29 2657.8 4558.18 3034.29 4931.39 3044.3C5204.32 3051.91 5284.92 2853.64 5711.73 2769.7C6008.86 2711.28 6268.94 2748.49 6444.22 2789.64" stroke="#4A3AFF" stroke-width="5" stroke-miterlimit="10"/>
<path d="M89.9863 1476.78C331.506 1619.26 545.373 1804.11 721.335 2022.45C1135.55 2541.46 1079.08 2952.98 1316.65 3017.27C1683.91 3116.72 1921.15 2161.34 2693.21 2010.38C3259.6 1899.18 3835.88 2275.66 3969.25 2362.79C4489.63 2702.78 4558.52 3079.28 4931.72 3089.28C5204.66 3096.9 5285.16 2898.64 5712.07 2814.69C6009.29 2756.25 6269.28 2793.48 6444.56 2834.63" stroke="#4A3AFF" stroke-width="5" stroke-miterlimit="10"/>
<path d="M90.1934 1521.4C331.745 1663.8 545.618 1848.62 721.534 2066.98C1135.75 2585.99 1079.28 2997.51 1316.94 3061.79C1684.21 3161.33 1921.36 2205.97 2693.5 2054.9C3259.84 1944.19 3836.11 2320.67 3969.49 2407.8C4489.87 2747.79 4558.85 3124.28 4931.96 3134.29C5204.89 3141.91 5285.5 2943.64 5712.31 2859.7C6009.44 2801.37 6269.52 2838.49 6444.8 2879.64" stroke="#4A3AFF" stroke-width="5" stroke-miterlimit="10"/>
<path d="M90.9102 1566.35C332.472 1708.78 546.349 1893.63 722.258 2112.02C1136.46 2630.93 1080 3042.46 1317.57 3106.84C1684.58 3206.79 1922.09 2251.11 2693.75 2099.98C3260.17 1989.17 3836.45 2365.65 3969.83 2452.87C4490.2 2792.77 4559.09 3169.26 4932.3 3179.36C5205.24 3186.98 5285.74 2988.72 5712.65 2904.87C6009.88 2846.43 6269.86 2883.56 6445.15 2924.81" stroke="#4A3AFF" stroke-width="5" stroke-miterlimit="10"/>
<path d="M90.7656 1611.38C332.328 1753.81 546.204 1938.66 722.114 2157.05C1136.32 2675.96 1079.85 3087.49 1317.52 3151.87C1684.78 3251.31 1922.03 2295.94 2694.08 2144.97C3260.41 2034.17 3836.66 2410.36 3970.17 2497.87C4490.44 2837.77 4559.43 3214.35 4932.54 3224.37C5205.47 3231.98 5286.08 3033.81 5712.89 2949.87C6010.12 2891.43 6270.1 2928.56 6445.38 2969.81" stroke="#4A3AFF" stroke-width="5" stroke-miterlimit="10"/>
<path d="M91.0996 1656.37C332.639 1798.84 546.511 1983.68 722.448 2202.05C1136.66 2721.05 1080.19 3132.48 1317.76 3196.87C1685.12 3296.31 1922.27 2340.94 2694.32 2189.98C3260.75 2079.16 3837.02 2455.64 3970.4 2542.87C4490.77 2882.76 4559.67 3259.36 4932.88 3269.36C5205.81 3276.97 5286.32 3078.81 5713.23 2994.86C6010.45 2936.43 6270.43 2973.56 6445.72 3014.8" stroke="#4A3AFF" stroke-width="5" stroke-miterlimit="10"/>
</svg>
